<svg width="600" height="896" viewBox="0 0 600 896" fill="none" xmlns="http://www.w3.org/2000/svg">
<g clip-path="url(#clip0_1730_1008)">
<rect width="600" height="896" fill="url(#paint0_linear_1730_1008)"/>
<path d="M148.126 314.401C148.126 314.401 145.938 290.127 145.167 289.959C145.07 277.574 121.855 261.197 116.701 257.629C88.7564 238.313 71.1574 239.499 42.4161 267.907C19.7331 290.322 27.3856 329.964 28.1916 332.699C22.2307 335.895 27.793 344.261 34.1701 343.004C34.1701 343.004 32.3101 348.333 38.1381 350.555C43.9661 352.777 45.8349 350.829 45.8349 350.829C45.8349 350.829 41.8492 356.672 50.1926 358.496C50.1926 358.496 46.5081 360.638 52.2032 362.612C57.8983 364.586 62.69 356.158 62.69 356.158C62.69 356.158 61.9991 362.647 67.464 364.135C72.9288 365.622 79.2439 359.159 79.2439 359.159C79.2439 359.159 84.939 366.348 90.085 365.551C95.231 364.745 98.4549 359.027 98.4549 359.027C98.4549 359.027 97.8438 363.125 102.945 362.408C107.569 361.762 107.135 354.777 107.011 353.467C107.161 354.795 108.1 361.913 111.041 361.142C116.798 359.638 115.434 354.963 116.47 356.38C117.507 357.787 122.644 356.486 126.948 353.52C130.872 350.82 128.923 346.173 128.923 346.173C128.923 346.173 132.794 347.394 135.389 342.986C135.389 342.986 135.655 349.475 140.597 346.518C144.928 343.924 140.012 336.408 140.012 336.408C140.012 336.408 143.617 338.887 147.922 336.178C151.376 334.009 146.274 330.327 146.274 330.327C146.274 330.327 152.669 331.761 154.565 328.857C156.46 325.953 148.126 314.392 148.126 314.392V314.401Z" fill="url(#paint1_linear_1730_1008)"/>
<path d="M141.261 309.576C141.261 310.505 141.226 311.346 141.164 312.099V312.134C140.73 317.534 139.029 319.057 138.64 321.518C138.303 323.652 136.355 328.131 133.131 324.289L133.122 324.28C133.122 324.28 131.643 306.858 132.13 303.574C132.13 303.574 132.803 298.652 135.239 297.545C138.365 296.12 141.288 301.361 141.27 309.567L141.261 309.576Z" fill="url(#paint2_linear_1730_1008)"/>
<path style="mix-blend-mode:multiply" opacity="0.6" d="M132.325 313.462C132.325 313.462 135.93 303.051 138.277 302.033C140.624 301.024 140.677 309.372 140.606 312.161C140.544 314.958 140.057 316.676 140.057 316.676C140.057 316.676 140.172 313.374 139.889 310.753C139.481 307 138.064 303.937 137.081 304.406C136.098 304.875 135.46 309.779 135.451 310.319C135.451 310.868 136.364 311.7 136.771 314.604C137.178 317.508 136.603 320.819 136.018 320.872C135.434 320.925 135.318 318.543 134.893 315.835C134.468 313.126 132.918 313.914 132.475 315.781L132.325 313.453V313.462Z" fill="url(#paint3_linear_1730_1008)"/>
<path style="mix-blend-mode:multiply" opacity="0.6" d="M132.475 315.782C132.475 315.782 133.388 313.002 134.353 314.047C135.327 315.091 135.265 318.429 135.93 318.721C136.594 319.013 136.992 316.269 136.461 313.896C135.93 311.524 134.858 309.488 133.875 310.054L132.325 313.462L132.475 315.791V315.782Z" fill="url(#paint4_linear_1730_1008)"/>
<path style="mix-blend-mode:multiply" d="M141.155 312.134C140.721 317.534 139.03 319.057 138.631 321.518C138.294 323.652 136.346 328.131 133.122 324.289C133.299 324.431 135.026 325.75 136.417 324.811C137.887 323.811 138.091 321.819 138.525 320.226C138.959 318.641 140.517 317.349 141.155 312.125V312.134Z" fill="url(#paint5_linear_1730_1008)"/>
<path d="M52.2916 360.647C47.181 361.771 41.0165 361.142 38.5011 356.867C38.4568 356.875 31.752 358.442 27.2171 347.58C23.2846 338.152 25.7025 333.398 25.7025 333.398C25.7025 333.398 21.8851 330.229 21.3006 327.759C19.9809 322.191 21.6549 312.772 25.6228 312.612C29.5997 312.453 32.4782 315.419 32.4782 315.419C32.4782 315.419 35.1088 309.001 38.2973 309.576C41.4859 310.151 49.5282 321.076 49.5282 321.076C49.5282 321.076 54.063 317.216 55.9318 319.562C57.8007 321.908 60.1655 327.848 60.1655 327.848C60.1655 327.848 65.4266 330.601 64.6029 336.922C64.6029 336.922 66.7286 341.224 62.5835 344.783C61.6889 345.553 60.4932 346.288 58.9344 346.934C58.9344 346.934 61.3878 351.139 60.0327 355.875C59.4481 357.92 56.1798 359.788 52.3004 360.647H52.2916Z" fill="#010101"/>
<path d="M60.0775 700.905L-87.03 622.993L-85.3206 652.472L39.9719 740.228C46.721 727.135 53.4435 714.042 60.0775 700.905Z" fill="url(#paint6_linear_1730_1008)"/>
<path opacity="0.2" d="M60.0774 700.905L-42.6029 646.523C-47.2617 655.048 -51.7523 663.981 -56.8894 672.391L39.9718 740.237C46.7209 727.144 53.4435 714.051 60.0774 700.914V700.905Z" fill="#201829"/>
<path d="M144.919 370.447L213.154 381.583L211.179 307.408C218.867 304.938 225.661 308.603 233.118 305.46C237.06 321.97 251.284 395.323 246.218 411.231C238.264 436.195 149.374 409.08 149.374 409.08L144.91 370.456L144.919 370.447Z" fill="url(#paint7_linear_1730_1008)"/>
<path d="M233.375 304.672C233.375 304.672 236.625 280.442 233.729 280.903C230.833 281.354 229.274 292.721 229.274 292.721C229.274 292.721 230.425 274.015 228.193 273.989C225.962 273.971 221.391 292.101 221.391 292.101C221.391 292.101 221.666 270.191 219.859 270.474C218.052 270.758 214.341 292.092 214.341 292.092C214.341 292.092 211.852 276.175 208.956 276.627C206.06 277.078 209.434 301.007 209.434 301.007C209.434 301.007 201.649 296.297 199.824 298.803C197.991 301.317 210.966 310.771 210.966 310.771L213.145 388.621L231.975 324.156L233.375 304.663V304.672Z" fill="url(#paint8_linear_1730_1008)"/>
<path d="M200.648 621.736L148.701 960.87L180.118 961.304L242.463 714.883L200.648 621.736Z" fill="url(#paint9_linear_1730_1008)"/>
<path opacity="0.2" d="M199.417 921.042L145.726 633.156L209.886 607.067L228.557 916.12C218.779 917.324 208.983 919.378 199.408 921.033L199.417 921.042Z" fill="#201829"/>
<path d="M172.819 445.693L179.648 532.688L70.8652 535.246L93.442 476.297L172.819 445.693Z" fill="#1ED6F7"/>
<path d="M102.928 340.684L113.628 374.527L140.624 371.057L114.841 415.214L60.7329 392.348L81.6977 382.734L71.4589 336.134L102.928 340.684Z" fill="url(#paint10_linear_1730_1008)"/>
<path d="M77.8359 258.869C77.8359 258.869 117.294 254.141 131.058 298.944C144.831 343.738 113.087 360.319 90.7849 359.992C68.4828 359.664 50.4231 338.409 45.3746 325.219C40.3172 312.028 42.3189 264.906 77.8359 258.877V258.869Z" fill="url(#paint11_linear_1730_1008)"/>
<path d="M175.034 480.405C175.034 480.405 144.689 498.783 86.2057 497.897C86.2057 497.897 42.1947 552.819 43.7536 613.636C44.843 656.323 63.7175 758.358 63.7175 758.358C63.7175 758.358 117.826 802.471 131.359 763.581C144.893 724.692 157.86 570.568 157.86 570.568L127.728 607.138L163.617 793.981L136.239 904.453L223.34 901.345C223.34 901.345 251.523 842.21 255.571 782.676C261.851 690.282 219.904 564.885 175.034 480.405V480.405Z" fill="#0FA2FD"/>
<path d="M95.6207 759.713C103.681 738.794 112.75 715.742 117.276 692.522C44.843 665.158 -26.439 638.485 -26.439 638.485L-52.6914 712.281L96.7456 777.568C100.297 769.867 92.565 767.636 95.6207 759.713Z" fill="#0FA2FD"/>
<path d="M26.2787 414.922L-79.9533 553.155C-79.9533 553.155 -94.9661 543.736 -98.4115 547.118C-107.348 555.873 -114.434 585.724 -98.509 556.085C-98.509 556.085 -113.681 603.172 -91.7599 557.794C-91.7599 557.794 -100.9 601.012 -84.8513 563.442C-84.8513 563.442 -89.5456 599.932 -80.0862 567.24C-80.0862 567.24 -74.6922 574.658 -67.8014 568.461C-60.9017 562.264 54.5683 451.439 58.8019 437.425C63.0356 423.412 26.2698 414.922 26.2698 414.922H26.2787Z" fill="url(#paint12_linear_1730_1008)"/>
<path opacity="0.2" d="M148.683 585.131C171.606 567.744 188.346 548.402 200.347 530.953C229.053 600.765 248.981 679.101 257.998 750.674C259.92 826.948 223.34 901.345 223.34 901.345L136.239 904.453L164.352 793.84L143.546 687.387L142.988 683.802C144.042 607.82 148.683 585.149 148.683 585.149V585.131Z" fill="#0FA2FD"/>
<path opacity="0.2" d="M88.969 487.973L93.4418 476.288L172.819 445.693L175.583 480.856C152.076 486.521 118.295 492.249 88.969 487.973Z" fill="#201829"/>
<path d="M149.481 370.987L185.148 374.926L182.163 426.218L149.481 370.987Z" fill="#161C40"/>
<path d="M123.618 373.165C123.618 373.165 136.771 368.119 148.073 370.332C159.374 372.545 181.225 403.972 187.398 417.941C193.571 431.91 198.044 454.104 198.044 454.104C198.044 454.104 115.93 495.817 80.2803 484.468L56.9064 443.321L39.8919 461.912L2.47949 432.92C2.47949 432.92 23.0457 398.837 47.0396 393.101L68.9432 386.691C68.9432 386.691 124.123 401.953 123.6 373.165H123.618Z" fill="#161C40"/>
<path d="M36.7034 326.67C37.1286 327.795 37.5626 328.804 37.9966 329.689L38.0231 329.733C41.1408 336.09 44.5331 337.17 46.2691 339.994C47.7748 342.428 52.8942 346.987 56.3042 340.879C56.3131 340.87 56.3219 340.861 56.3219 340.861C56.3219 340.861 50.8305 319.04 48.572 315.277C48.572 315.277 45.2771 309.612 40.9017 309.355C35.2774 309.027 32.9746 316.711 36.7034 326.67V326.67Z" fill="url(#paint13_linear_1730_1008)"/>
<path style="mix-blend-mode:multiply" opacity="0.6" d="M52.6992 327.361C52.6992 327.361 42.2567 316.34 38.0584 316.171C33.8601 316.003 37.5358 326.157 38.8998 329.521C40.2638 332.885 41.8138 334.753 41.8138 334.753C41.8138 334.753 40.1398 330.796 39.4224 327.494C38.3861 322.749 39.263 318.393 41.0344 318.517C42.8058 318.641 46.0475 324.307 46.2955 324.971C46.5524 325.635 45.4629 327.06 46.1184 330.769C46.7738 334.479 49.1829 338.241 50.1483 338.037C51.1049 337.834 50.2192 334.895 49.6789 331.416C49.1386 327.937 51.9552 328.193 53.514 330.256L52.6992 327.361V327.361Z" fill="url(#paint14_linear_1730_1008)"/>
<path style="mix-blend-mode:multiply" opacity="0.6" d="M53.5141 330.256C53.5141 330.256 50.8127 327.29 49.7321 328.999C48.6516 330.707 50.2547 334.726 49.3247 335.381C48.3947 336.037 46.5259 332.876 46.3045 329.76C46.083 326.635 46.8713 323.687 48.6959 323.926L52.7081 327.361L53.523 330.256H53.5141Z" fill="url(#paint15_linear_1730_1008)"/>
<path style="mix-blend-mode:multiply" d="M38.0229 329.733C41.1406 336.09 44.5329 337.17 46.2689 339.994C47.7746 342.428 52.894 346.987 56.304 340.879C56.0826 341.127 53.9303 343.517 51.2909 342.995C48.5009 342.446 47.2786 340.117 45.8615 338.382C44.4532 336.647 41.3886 335.789 38.0229 329.733V329.733Z" fill="url(#paint16_linear_1730_1008)"/>
<path d="M26.6509 305.902C28.502 309.842 30.3974 304.389 30.3974 304.389C32.6383 310.523 37.3148 310.267 37.3148 310.267C37.3148 310.267 33.3114 313.144 34.3566 317.455C35.3928 321.766 43.2934 319.597 43.2934 319.597C43.2934 319.597 43.0188 327.812 47.0222 328.016C51.0345 328.22 49.8919 324.891 49.8919 324.891C54.8873 325.741 51.681 321.217 51.681 321.217C52.9565 319.341 47.7928 315.33 47.7928 315.33C50.1311 314.48 48.6253 309.815 48.6253 309.815C49.9008 311.825 53.5499 309.567 53.5499 309.567C53.5499 309.567 55.3567 312.382 58.0493 311.4C60.7507 310.408 57.1547 300.175 57.1547 300.175C59.5904 298.67 54.4622 288.109 54.4622 288.109C54.4622 288.109 56.7207 289.065 57.7216 287.799C58.7047 286.559 56.4196 282.691 56.331 282.54C56.4019 282.629 57.5976 283.983 61.6541 282.85C65.7638 281.699 64.5593 275.033 64.4973 274.963C68.4918 275.777 71.8664 272.254 71.8664 272.254C71.8664 272.254 73.8681 275.6 75.4978 275.104C77.1275 274.608 81.2992 267.863 81.2992 267.863C84.8509 268.527 88.0483 266.685 88.0483 266.685C87.7117 266.977 92.0429 273.254 94.7354 271.926C97.3217 270.651 97.6671 269.394 97.6937 269.306C97.7114 269.43 98.0657 272.147 101.068 276.76C104.142 281.487 107.622 278.636 107.622 278.636C107.622 278.636 107.64 284.346 108.738 286.453C109.837 288.56 111.573 290.162 111.573 290.162C111.573 290.162 112.946 295.146 114.841 294.066C116.736 292.995 116.347 291.163 116.373 290.596C116.4 290.03 117.622 292.119 120.704 292.73C123.787 293.34 122.547 289.667 122.547 289.667C124.088 291.508 126.532 290.455 126.532 290.455C126.532 290.455 126.958 296.527 128.773 298.316C132.91 302.397 134.318 293.978 134.318 293.978C137.205 292.659 135.221 288.923 135.221 288.923C135.221 288.923 136.125 289.737 137.745 287.905C139.357 286.064 138.481 279.46 136.24 277.052C134.158 274.821 133.955 277.105 133.937 277.45C133.937 277.477 133.937 277.494 133.937 277.494C133.937 277.494 138.613 273.785 138.162 271.413C137.71 269.049 134.805 265.101 134.805 265.101C134.805 265.101 137.187 262.33 137.09 259.594C136.993 256.868 135.327 250.627 132.786 250.937C130.323 251.246 130.155 253.247 130.164 253.451C130.164 253.451 128.773 249.228 127.507 247.998C126.683 247.201 123.858 246.094 122.821 246.138C120.315 246.254 118.774 247.812 118.774 247.812C116.214 246.528 113.566 243.642 113.566 243.642C113.566 243.642 115.319 242.137 113.76 240.128C110.368 235.737 100.466 233.887 95.5326 233.161C88.8277 232.169 85.6303 236.091 85.6923 236.135C79.0583 235.737 74.2401 237.472 74.2401 237.472C74.2401 237.472 74.2224 236.595 71.5387 236.277C68.9701 235.976 67.3847 237.206 65.7993 239.605L65.7727 239.65C65.7727 239.65 63.7444 238.207 60.9987 240.198C57.7304 242.562 55.6845 249.29 57.3319 257.921C56.269 258.24 55.6933 258.479 54.4179 259.178C40.7868 254.168 41.2828 264.472 41.2828 264.472C41.2828 264.472 39.104 264.136 35.3928 265.481C31.788 266.783 31.8943 267.482 32.2043 268.775C32.5231 270.102 35.2423 270.076 35.2423 270.076C27.5455 274.325 28.7766 273.998 28.7766 273.998C26.022 276.344 26.1372 278.468 26.3675 279.389C26.4472 279.699 26.5357 279.876 26.5357 279.876C26.5357 279.876 21.9212 283.328 22.426 285.869C22.9309 288.41 26.084 287.073 26.084 287.073C25.7298 289.224 26.4472 291.623 27.1026 293.234C27.5632 294.359 27.9883 295.102 27.9883 295.102C27.9883 295.102 24.7998 301.972 26.6509 305.911V305.902Z" fill="#010101"/>
<g style="mix-blend-mode:multiply">
<path d="M26.6507 305.902C28.5018 309.842 30.3973 304.388 30.3973 304.388C32.6381 310.523 37.3147 310.266 37.3147 310.266C37.3147 310.266 33.3112 313.144 34.3564 317.455C35.3927 321.766 43.2932 319.597 43.2932 319.597C43.2932 319.597 43.0186 327.812 47.022 328.016C51.0343 328.22 49.8917 324.891 49.8917 324.891C54.8871 325.741 51.6809 321.217 51.6809 321.217C52.9563 319.34 47.7926 315.33 47.7926 315.33C50.1309 314.48 48.6252 309.815 48.6252 309.815C49.9006 311.825 53.5497 309.567 53.5497 309.567C53.5497 309.567 55.3566 312.382 58.0491 311.4C60.7505 310.408 57.1546 300.175 57.1546 300.175C59.5903 298.67 54.462 288.108 54.462 288.108C54.462 288.108 56.7206 289.065 57.7214 287.799C58.7223 286.533 56.3308 282.531 56.3308 282.531C56.3308 282.531 57.4734 284.019 61.654 282.85C65.7637 281.699 64.5591 275.033 64.4971 274.962C68.4916 275.777 71.8662 272.253 71.8662 272.253C71.8662 272.253 73.8679 275.6 75.4976 275.104C77.1273 274.608 81.299 267.863 81.299 267.863C84.8507 268.527 88.0481 266.685 88.0481 266.685C87.7115 266.977 92.0427 273.254 94.7352 271.926C97.3215 270.651 97.6669 269.394 97.6935 269.306C97.7112 269.429 98.0655 272.147 101.068 276.759C104.141 281.487 107.622 278.636 107.622 278.636C107.622 278.636 107.64 284.346 108.738 286.453C109.837 288.56 111.573 290.162 111.573 290.162C111.573 290.162 112.945 295.146 114.841 294.066C116.736 292.995 116.347 291.163 116.373 290.596C116.4 290.029 117.622 292.119 120.704 292.729C123.787 293.34 122.547 289.666 122.547 289.666C124.088 291.508 126.532 290.454 126.532 290.454C126.532 290.454 126.957 296.527 128.773 298.315C132.909 302.397 134.318 293.978 134.318 293.978C137.205 292.659 135.221 288.923 135.221 288.923C135.221 288.923 136.124 289.737 137.745 287.905C139.357 286.063 138.48 279.459 136.24 277.052C133.999 274.644 133.937 277.494 133.937 277.494C133.937 277.494 138.613 273.785 138.162 271.412C137.71 269.049 134.805 265.101 134.805 265.101C134.805 265.101 137.187 262.33 137.09 259.594C136.992 256.868 135.327 250.627 132.785 250.936C130.323 251.246 130.155 253.247 130.164 253.451C129.65 256.761 112.325 257.195 112.325 257.195C112.325 257.195 115.7 260.258 109.881 260.993C102.583 261.914 96.1524 255.92 96.1524 255.92C96.1524 255.92 89.2881 259.78 83.9473 259.612C68.2791 259.107 58.7666 256.053 56.7648 252.76L57.3317 257.921L54.4177 259.178C54.4177 259.178 58.6071 260.453 59.2094 265.641C59.4751 267.907 51.2823 270.74 50.0777 268.527C50.0777 268.527 50.9014 273.466 45.5429 273.661C45.5429 273.661 49.7943 274.785 48.6695 279.619C47.5535 284.452 28.2627 286.046 26.5267 279.884C26.5267 279.884 21.9122 283.337 22.417 285.878C22.9219 288.418 26.075 287.082 26.075 287.082C25.4727 290.729 27.9793 295.111 27.9793 295.111C27.9793 295.111 24.7907 301.98 26.6418 305.92L26.6507 305.902Z" fill="#010101"/>
</g>
<g style="mix-blend-mode:multiply">
<path d="M26.6506 305.902C28.5018 309.841 30.3972 304.388 30.3972 304.388C32.638 310.523 37.3146 310.266 37.3146 310.266C37.3146 310.266 33.3112 313.143 34.3563 317.455C35.3926 321.766 43.2931 319.597 43.2931 319.597C43.2931 319.597 43.0186 327.812 47.022 328.016C51.0342 328.219 49.8917 324.891 49.8917 324.891C54.8871 325.741 51.6808 321.217 51.6808 321.217C52.9562 319.34 47.7925 315.33 47.7925 315.33C50.1308 314.48 48.6251 309.815 48.6251 309.815C49.9005 311.824 53.5496 309.567 53.5496 309.567C53.5496 309.567 55.3565 312.382 58.049 311.4C60.7505 310.408 57.1545 300.174 57.1545 300.174C59.5902 298.669 54.4619 288.108 54.4619 288.108C54.4619 288.108 56.7205 289.064 57.7213 287.799C58.7045 286.559 56.4193 282.691 56.3308 282.54C56.4016 282.629 57.5973 283.983 61.6539 282.85C65.7636 281.699 64.559 275.033 64.497 274.962C68.4916 275.777 71.8661 272.253 71.8661 272.253C71.8661 272.253 73.8678 275.6 75.4975 275.104C77.1272 274.608 81.2989 267.862 81.2989 267.862C84.8506 268.526 88.048 266.685 88.048 266.685C87.7115 266.977 92.0426 273.254 94.7352 271.926C97.3214 270.651 97.6669 269.394 97.6934 269.305C97.7111 269.429 98.0654 272.147 101.068 276.759C104.141 281.487 107.622 278.636 107.622 278.636C107.622 278.636 107.64 284.346 108.738 286.453C109.837 288.56 111.572 290.162 111.572 290.162C111.572 290.162 112.945 295.146 114.841 294.066C116.736 292.995 116.346 291.162 116.373 290.596C116.4 290.029 117.622 292.119 120.704 292.729C123.786 293.34 122.546 289.666 122.546 289.666C124.088 291.508 126.532 290.454 126.532 290.454C126.532 290.454 126.957 296.527 128.773 298.315C132.909 302.396 134.318 293.978 134.318 293.978C137.205 292.659 135.221 288.923 135.221 288.923C135.221 288.923 136.124 289.737 137.745 287.905C139.357 286.063 138.48 279.459 136.24 277.051C134.158 274.821 133.954 277.105 133.937 277.45C133.937 277.476 133.937 277.494 133.937 277.494C134.707 281.885 130.527 278.521 130.527 278.521C130.527 278.521 130.562 281.23 127.657 280.424C127.825 280.477 129.96 281.221 127.71 282.266C125.372 283.355 122.803 279.415 122.803 279.415C122.803 279.415 121.944 281.796 119.048 282C119.048 282 122.148 283.284 118.729 284.311C115.31 285.337 116.187 278.432 116.187 278.432C116.187 278.432 114.283 280.451 111.998 278.353C109.704 276.255 109.916 271.465 109.916 271.465C109.916 271.465 109.075 274.803 105.275 274.316C101.475 273.829 98.6323 267.172 98.6323 267.172C98.6323 267.172 97.286 268.774 95.5677 269.323C93.8583 269.863 92.202 264.392 92.202 264.392C92.202 264.392 92.1312 266.437 88.0392 264.977C88.0392 264.977 88.5529 266.358 85.7452 266.535C82.9375 266.712 79.2795 263.418 79.2795 263.418C79.2795 263.418 79.7312 268.827 77.579 269.863C75.4267 270.899 74.665 263.268 74.665 263.268C74.665 263.268 72.309 267.128 69.7227 266.074C67.1364 265.021 66.3216 262.666 66.3216 262.666C66.3216 262.666 67.659 266.446 64.6565 266.951C61.7779 267.429 60.3342 265.463 60.2102 265.295C60.3873 265.596 63.691 271.412 59.4396 273.316C59.9533 273.094 63.939 271.457 63.1773 274.121C62.3625 276.972 57.7213 274.998 57.7213 274.998C57.7213 274.998 59.5282 277.051 57.5619 278.707C55.7551 280.23 54.6479 279.034 54.4708 278.822C54.7276 279.185 57.1368 282.744 53.1156 284.868C53.3194 284.78 55.9676 283.709 55.3565 285.453C54.7188 287.267 51.3354 287.807 51.3354 287.807C51.3354 287.807 54.2139 289.826 52.9385 291.463C52.4336 292.11 51.6011 292.216 50.7685 292.101C53.2485 293.137 56.4459 295.128 54.9313 298.191C53.1865 301.706 49.8562 299.767 48.2265 298.51C49.2982 299.564 50.7154 301.467 49.1831 303.105C46.9245 305.521 43.0274 300.148 43.0274 300.148C43.0274 300.148 43.3374 303.14 39.8034 302.857C39.8034 302.857 43.7625 305.513 41.4508 306.982C39.1303 308.452 32.2572 307.549 33.8603 304.07C33.8603 304.07 31.0349 302.228 32.6026 299.918C32.6026 299.918 28.1563 300.042 28.0146 295.102C28.0146 295.102 24.8261 301.972 26.6772 305.911L26.6506 305.902Z" fill="#010101"/>
</g>
<g style="mix-blend-mode:soft-light" opacity="0.5">
<path d="M84.3546 251.742C84.3546 251.742 81.9012 253.3 84.5317 253.787C87.1623 254.274 91.272 252.043 91.272 252.043C99.1637 252.415 101.431 250.565 99.9431 247.564C99.9431 247.564 104.513 240.968 96.8874 241.331C94.9566 241.42 96.0371 243.004 96.0726 243.031C92.0691 242.792 92.8043 244.669 92.8043 244.669C92.8043 244.669 87.4723 242.155 85.8426 242.119C69.2178 241.73 75.6746 246.448 75.6746 246.448C59.909 253.725 84.3723 251.751 84.3723 251.751L84.3546 251.742Z" fill="#010101"/>
</g>
<path d="M109.624 315.719C108.472 315.649 111.076 306.026 117.48 303.06C125.221 299.484 128.684 306.415 128.976 307.92C129.278 309.425 115.151 316.029 109.615 315.711L109.624 315.719Z" fill="url(#paint17_linear_1730_1008)"/>
<path d="M118.823 314.051C121.776 313.59 123.789 310.78 123.319 307.775C122.848 304.771 120.074 302.709 117.121 303.171C114.168 303.633 112.155 306.442 112.625 309.447C113.095 312.452 115.87 314.513 118.823 314.051Z" fill="url(#paint18_linear_1730_1008)"/>
<path d="M118.774 313.736C121.553 313.302 123.447 310.655 123.004 307.824C122.561 304.994 119.949 303.051 117.17 303.486C114.391 303.92 112.498 306.567 112.941 309.398C113.384 312.228 115.995 314.171 118.774 313.736Z" fill="url(#paint19_linear_1730_1008)"/>
<path style="mix-blend-mode:multiply" d="M121.2 307.858C121.608 309.673 120.5 311.47 118.72 311.878C116.94 312.285 115.168 311.143 114.752 309.337C114.336 307.531 115.452 305.725 117.232 305.318C119.012 304.911 120.784 306.053 121.2 307.858Z" fill="url(#paint20_linear_1730_1008)"/>
<path d="M109.509 313.914C109.509 313.914 110.12 301.113 117.276 298.351C124.442 295.589 128.321 306.336 128.321 306.336C128.321 306.336 125.256 300.918 118.33 302.892C111.395 304.866 109.509 313.914 109.509 313.914V313.914Z" fill="url(#paint21_linear_1730_1008)"/>
<path d="M109.411 314.445L110.944 315.684C110.944 315.684 109.473 316.171 109.225 315.782C108.977 315.392 109.411 314.445 109.411 314.445Z" fill="#D86B7C"/>
<path d="M111.971 315.596C111.971 315.596 117.985 315.162 122.777 313.011C127.568 310.851 128.782 308.381 128.782 308.381C128.782 308.381 121.572 313.241 111.971 315.596V315.596Z" fill="#D86B7C"/>
<path d="M121.457 306.716C121.2 307.079 122.697 306.805 123.707 306.114C124.601 305.495 124.938 304.742 124.814 304.645C124.69 304.556 122.458 305.291 121.457 306.716Z" fill="white"/>
<path d="M120.678 307.195C120.226 307.141 119.783 307.478 119.818 307.708C119.854 307.938 120.438 308.106 120.651 307.956C120.872 307.805 120.926 307.221 120.678 307.195V307.195Z" fill="white"/>
<g style="mix-blend-mode:multiply" opacity="0.6">
<path d="M109.411 314.445C109.411 314.445 112.538 307.319 118.109 304.858C123.68 302.397 127.25 305.106 127.25 305.106C127.25 305.106 125.46 300.963 117.958 303.273C110.457 305.575 109.411 314.445 109.411 314.445V314.445Z" fill="#CC78B1"/>
</g>
<path d="M109.411 314.445C109.411 314.445 111.112 305.601 118.871 303.211C125.797 301.086 128.676 307.035 128.676 307.035C128.676 307.035 128.171 301.369 123.034 301.183C118.153 301.006 110.793 305.3 109.411 314.445V314.445Z" fill="#401432"/>
<path d="M86.0639 319.403C87.1356 318.986 81.715 310.621 74.7179 309.753C66.2594 308.709 65.0814 316.375 65.2497 317.898C65.4268 319.42 80.8913 321.403 86.0639 319.403Z" fill="url(#paint22_linear_1730_1008)"/>
<path d="M76.7863 320.621C79.7391 320.159 81.7512 317.348 81.2805 314.344C80.8098 311.34 78.0344 309.279 75.0816 309.741C72.1288 310.203 70.1167 313.013 70.5874 316.018C71.0581 319.022 73.8335 321.083 76.7863 320.621Z" fill="url(#paint23_linear_1730_1008)"/>
<path d="M76.7279 320.311C79.5068 319.876 81.4004 317.229 80.9574 314.399C80.5145 311.568 77.9026 309.626 75.1237 310.06C72.3448 310.494 70.4511 313.141 70.8941 315.972C71.3371 318.803 73.949 320.745 76.7279 320.311Z" fill="url(#paint24_linear_1730_1008)"/>
<path style="mix-blend-mode:multiply" d="M72.6363 315.454C72.7957 317.304 74.4077 318.676 76.2234 318.517C78.0391 318.358 79.3854 316.738 79.2171 314.888C79.0577 313.037 77.4457 311.665 75.63 311.825C73.8143 311.984 72.468 313.604 72.6363 315.454Z" fill="url(#paint25_linear_1730_1008)"/>
<path d="M85.6122 317.65C85.6122 317.65 81.1216 305.646 73.4602 305.203C65.7988 304.76 65.3826 316.171 65.3826 316.171C65.3826 316.171 66.6403 310.081 73.8411 309.842C81.0419 309.612 85.6122 317.641 85.6122 317.641V317.65Z" fill="url(#paint26_linear_1730_1008)"/>
<path d="M85.8689 318.128L84.7883 319.775C84.7883 319.775 86.3383 319.792 86.4535 319.341C86.5775 318.898 85.8689 318.128 85.8689 318.128V318.128Z" fill="#D86B7C"/>
<path d="M83.7874 320.005C83.7874 320.005 77.924 321.43 72.7072 320.837C67.4903 320.244 65.5684 318.27 65.5684 318.27C65.5684 318.27 73.9206 320.704 83.7785 320.005H83.7874Z" fill="#D86B7C"/>
<path d="M72.0431 314.445C72.3974 314.711 70.8916 314.914 69.7225 314.56C68.6774 314.241 68.1282 313.622 68.2168 313.498C68.3054 313.374 70.6525 313.392 72.0431 314.445V314.445Z" fill="white"/>
<path d="M72.929 314.666C73.3452 314.48 73.8678 314.666 73.9032 314.896C73.9387 315.127 73.4338 315.463 73.1858 315.383C72.929 315.304 72.6987 314.772 72.929 314.666Z" fill="white"/>
<g style="mix-blend-mode:multiply" opacity="0.6">
<path d="M85.869 318.128C85.869 318.128 80.7141 312.303 74.6559 311.657C68.5976 311.01 66.0291 314.684 66.0291 314.684C66.0291 314.684 66.4631 310.196 74.3104 310.099C82.1578 310.001 85.8601 318.128 85.8601 318.128H85.869Z" fill="#CC78B1"/>
</g>
<path d="M85.8691 318.128C85.8691 318.128 81.5469 310.222 73.4338 310.32C66.1887 310.408 65.2675 316.95 65.2675 316.95C65.2675 316.95 64.0187 311.4 68.8458 309.656C73.4426 307.991 81.7595 309.842 85.8691 318.128V318.128Z" fill="#401432"/>
<path d="M110.545 326.015C110.545 326.015 110.448 326.608 108.313 327.016C106.179 327.432 104.469 329.618 100.829 330.194C97.1886 330.76 95.0717 329.176 92.9106 329.423C90.7495 329.68 90.2978 329.176 90.2978 329.176C89.7575 327.821 89.7486 326.431 89.9612 325.201C89.9612 325.201 89.9612 325.165 89.9612 325.156C90.3509 322.996 91.396 321.359 91.396 321.359C96.1169 318.092 101.599 317.233 107.1 318.907C107.1 318.907 108.065 319.703 108.969 321.013V321.031C109.845 322.297 110.669 324.041 110.527 326.015H110.545Z" fill="url(#paint27_linear_1730_1008)"/>
<path d="M105.877 328.104C105.877 328.104 107.303 326.431 109.447 326.723L105.877 328.104Z" fill="#812852"/>
<path d="M91.7947 329.495C91.7947 329.495 93.7787 328.546 96.1258 329.877L91.7947 329.495Z" fill="#812852"/>
<g style="mix-blend-mode:multiply" opacity="0.6">
<path d="M110.545 326.015C110.545 326.015 110.448 326.608 108.313 327.016C106.179 327.432 104.469 329.618 100.829 330.194C97.1886 330.76 95.0717 329.176 92.9106 329.423C90.7495 329.68 90.2978 329.176 90.2978 329.176C89.7575 327.821 89.7486 326.431 89.9612 325.201C89.9346 325.555 89.8283 327.839 90.7672 328.246C91.7857 328.68 97.0114 327.52 100.324 326.998C103.637 326.476 109.27 325.608 109.766 324.634C110.244 323.696 109.084 321.253 108.969 321.031C109.845 322.297 110.669 324.041 110.527 326.015H110.545Z" fill="#CC78B1"/>
</g>
<path style="mix-blend-mode:multiply" opacity="0.6" d="M107.1 318.898C107.1 318.898 106.489 322.731 107.029 325.271C107.029 325.271 105.762 322.917 106.294 318.676L107.1 318.898V318.898Z" fill="url(#paint28_linear_1730_1008)"/>
<path style="mix-blend-mode:multiply" opacity="0.6" d="M91.582 321.332C91.582 321.332 93.3358 324.802 93.5926 327.378C93.5926 327.378 94.0797 324.74 92.2817 320.872L91.582 321.332V321.332Z" fill="url(#paint29_linear_1730_1008)"/>
<g style="mix-blend-mode:multiply" opacity="0.6">
<path d="M90.7671 328.246C90.7671 328.246 90.3508 328.883 90.2888 329.184C90.2268 329.485 95.7537 333.274 101.165 332.424C106.577 331.574 110.518 326.582 110.536 326.015C110.545 325.448 109.553 324.882 109.553 324.882C109.553 324.882 105.426 326.201 100.324 326.998C95.2134 327.794 90.7671 328.246 90.7671 328.246V328.246Z" fill="#CC78B1"/>
</g>
<path d="M104.451 325.077C103.619 324.758 104.77 323.28 105.142 323.28C105.514 323.28 105.842 324.059 105.727 324.617C105.611 325.174 104.806 325.21 104.451 325.077Z" fill="#FBCBBB"/>
<g style="mix-blend-mode:multiply">
<path d="M106.471 302.99C106.471 302.99 107.905 297.404 110.704 293.464L110.084 296.005C110.084 296.005 110.908 294.881 112.254 293.845C113.609 292.809 124.566 289.906 126.868 289.959L126.355 289.029C126.355 289.029 130.766 291.729 134.432 298.165C134.432 298.165 131.067 295.394 129.136 295.377C127.205 295.359 110.465 300.608 106.657 304.22L106.462 302.999L106.471 302.99Z" fill="#010101"/>
<path d="M85.7628 306.23C85.7628 306.23 82.6893 301.352 78.8188 298.448L80.1828 300.679C80.1828 300.679 79.0579 299.856 77.4548 299.28C75.8517 298.705 64.5234 299.28 62.3534 300.042L62.5572 299.006C62.5572 299.006 59.1826 302.928 57.6592 310.178C57.6592 310.178 60.0152 306.513 61.8486 305.902C63.682 305.291 81.2191 305.185 85.9576 307.46L85.7628 306.239V306.23Z" fill="#010101"/>
</g>
<path style="mix-blend-mode:multiply" opacity="0.6" d="M90.3598 312.356C90.3598 312.356 93.8229 329.008 90.404 334.054C86.9852 339.108 70.3427 340.445 61.4945 336.417C52.6462 332.389 56.5611 310.134 56.5611 310.134C56.5611 310.134 60.4493 303.149 72.991 302.344C85.5326 301.538 90.3598 312.347 90.3598 312.347V312.356Z" fill="url(#paint30_linear_1730_1008)"/>
<path style="mix-blend-mode:multiply" opacity="0.6" d="M103.947 310.391C103.947 310.391 105.842 325.316 110.217 328.76C114.602 332.195 129.437 328.724 136.009 322.758C142.581 316.791 132.962 298.537 132.962 298.537C132.962 298.537 127.63 293.553 116.506 296.35C105.381 299.148 103.938 310.399 103.938 310.399L103.947 310.391Z" fill="url(#paint31_linear_1730_1008)"/>
<path d="M88.8628 315.427C89.1905 315.038 91.5111 312.4 96.4179 311.32C101.776 310.143 105.665 311.816 106.09 312.002" stroke="url(#paint32_linear_1730_1008)" stroke-miterlimit="10"/>
<path d="M55.932 319.562L47.9341 314.294" stroke="url(#paint33_linear_1730_1008)" stroke-miterlimit="10"/>
<g style="mix-blend-mode:multiply" opacity="0.4">
<path d="M93.4331 345.579C96.1168 347.341 99.0839 349.421 102.547 349.156C106.01 348.89 109.208 345.101 111.262 342.481C106.648 347.81 99.6065 348.873 93.4331 345.588V345.579Z" fill="#CC78B1"/>
</g>
<path d="M85.8868 337.948C89.4119 343.632 95.7093 348.633 102.706 347.518C109.943 346.358 114.292 340.02 115.744 333.301C110.935 335.39 106.391 338.019 101.847 340.622C96.5862 339.515 91.2276 338.435 85.8779 337.948H85.8868Z" fill="#F26665"/>
<path d="M116.621 332.097C116.09 333.531 115.31 334.877 114.354 336.09C111.36 339.887 106.595 342.499 102.104 343.216C98.2692 343.827 94.009 343.349 90.3953 341.685C88.1278 340.64 86.1173 339.126 84.6116 337.117C89.1198 338.188 95.1692 338.046 99.8989 337.382C100.306 337.32 100.714 337.258 101.103 337.196C102.494 336.993 103.964 336.709 105.461 336.346C109.367 335.408 113.441 333.947 116.63 332.106L116.621 332.097Z" fill="#731C55"/>
<g style="mix-blend-mode:multiply" opacity="0.4">
<path d="M84.6116 337.107C89.1198 338.179 95.1692 338.037 99.8989 337.373C94.3898 338.586 89.5981 340.241 90.3953 341.675C88.1278 340.631 86.1173 339.117 84.6116 337.107Z" fill="#CC78B1"/>
</g>
<g style="mix-blend-mode:multiply" opacity="0.6">
<path d="M116.621 332.097C116.09 333.531 115.31 334.877 114.354 336.09C114.141 335.39 110.138 335.62 105.461 336.338C109.367 335.399 113.441 333.939 116.63 332.097H116.621Z" fill="#CC78B1"/>
</g>
<path d="M94.1064 342.994C96.0196 341.95 99.4296 341.065 101.679 341.153C104.319 340.224 109.288 340.595 109.288 340.595C106.905 341.95 104.478 342.986 101.688 343.331C99.3056 343.623 96.5422 343.366 94.1153 342.994H94.1064Z" fill="#BE2741"/>
<path d="M85.7097 337.311C90.6608 338.205 96.0902 338.117 101.094 337.178C106.108 336.541 111.165 335.009 115.682 332.602C110.244 333.097 99.4116 334.266 85.7097 337.311Z" fill="#D74058"/>
<path d="M88.6501 337.745C92.4056 339.781 96.967 340.657 101.21 339.985C105.452 339.312 109.562 337.143 112.591 334.106C108.933 335.718 105.054 336.559 101.068 337.187C97.0821 337.816 92.7244 338.134 88.6501 337.745V337.745Z" fill="#FBDBE9"/>
<path d="M114.85 331.336C116.152 331.973 117.338 332.734 118.144 333.929C117.888 332.956 117.4 331.451 116.621 330.902C115.833 330.353 115.381 330.92 114.85 331.336Z" fill="#D86B7C"/>
<path d="M86.3121 335.788C85.267 336.789 84.3724 337.878 83.965 339.259C83.9119 338.258 83.9119 336.691 84.4876 335.93C85.0633 335.169 85.6744 335.558 86.3121 335.788Z" fill="#D86B7C"/>
<g style="mix-blend-mode:soft-light">
<path d="M107.002 342.499C107.711 342.853 108.233 343.411 108.685 344.057C108.915 343.889 109.154 343.729 109.385 343.561C109.305 342.871 108.517 342.348 108.029 341.977C107.684 342.154 107.347 342.331 107.002 342.499Z" fill="#FBDBE9"/>
</g>
<g style="mix-blend-mode:soft-light">
<path d="M108.446 341.915C109.092 342.171 109.456 342.676 109.695 343.313C109.757 343.225 109.819 343.127 109.881 343.039C109.615 342.428 109.199 342.039 108.543 341.906C108.508 341.906 108.481 341.915 108.446 341.923V341.915Z" fill="#FBDBE9"/>
</g>
<path d="M94.0974 342.985C99.146 343.711 104.611 342.41 109.27 340.586C105.089 343.729 98.9954 343.977 94.0974 342.985Z" fill="#FBDBE9"/>
<g style="mix-blend-mode:soft-light" opacity="0.5">
<path d="M99.0573 342.18C101.13 342.614 105.842 340.418 101.679 341.162C99.9254 341.472 96.3205 341.613 99.0573 342.18Z" fill="#F7A9B0"/>
</g>
<g style="mix-blend-mode:multiply">
<path d="M42.3999 264.386C42.3999 264.386 40.0633 241.321 24.5218 242.873C8.98019 244.424 9.66527 273.933 9.66527 273.933L12.1536 271.686C12.1536 271.686 9.08205 255.827 17.4646 252.755C25.8487 249.694 33.5885 254.242 33.5885 254.242C33.5885 254.242 10.6883 248.287 4.3701 262.039C-1.95739 275.793 7.61662 299.652 22.5759 294.939C37.5338 290.216 42.4092 264.384 42.4092 264.384L42.3999 264.386Z" fill="#010101"/>
</g>
<path style="mix-blend-mode:multiply" d="M2.77258 276.736C2.77258 276.736 18.5775 254.553 38.9226 266.215L40.3869 265.409C40.3869 265.409 20.9521 252 2.40076 271.175L2.77401 276.745L2.77258 276.736Z" fill="url(#paint34_linear_1730_1008)"/>
<path d="M3.79127 263.411C3.79127 263.411 23.213 248.59 40.5047 260.19L38.6132 257.174C38.6132 257.174 30.1062 248.448 4.35995 262.04L3.79127 263.411Z" fill="#010101"/>
<path style="mix-blend-mode:multiply" d="M12.1868 293.509C12.1868 293.509 8.52405 267.579 36.5489 267.656L35.652 268.318C35.652 268.318 9.56576 269.833 14.4319 294.684L12.1961 293.508L12.1868 293.509Z" fill="url(#paint35_linear_1730_1008)"/>
<path d="M44.4757 262.802C44.4757 262.802 31.2758 270.476 28.0036 291.896C28.0036 291.896 18.1585 271.464 44.4757 262.802Z" fill="#F78E1E"/>
<path fill-rule="evenodd" clip-rule="evenodd" d="M424.796 786.355C425.217 788.359 423.933 790.325 421.929 790.746C408.37 793.593 397.604 796.992 390.319 800.677C386.671 802.522 384.082 804.346 382.452 806.056C380.836 807.75 380.375 809.091 380.375 810.105C380.375 811.08 380.8 812.352 382.266 813.954C383.75 815.576 386.116 817.32 389.474 819.096C396.184 822.644 406.137 825.953 418.75 828.774C443.914 834.403 478.859 837.917 517.583 837.917C556.308 837.917 591.253 834.403 616.417 828.774C629.029 825.953 638.982 822.644 645.692 819.096C649.051 817.32 651.417 815.576 652.901 813.954C654.366 812.352 654.792 811.08 654.792 810.105C654.792 809.091 654.33 807.75 652.715 806.056C651.084 804.346 648.496 802.522 644.848 800.677C637.563 796.992 626.797 793.593 613.238 790.746C611.234 790.325 609.95 788.359 610.371 786.355C610.791 784.351 612.757 783.067 614.762 783.488C628.594 786.391 640.077 789.953 648.195 794.058C652.248 796.108 655.649 798.386 658.082 800.938C660.531 803.505 662.208 806.585 662.208 810.105C662.208 813.481 660.662 816.458 658.373 818.96C656.103 821.442 652.932 823.657 649.16 825.652C641.608 829.646 630.925 833.129 618.036 836.012C592.198 841.792 556.685 845.334 517.583 845.334C478.482 845.334 442.968 841.792 417.131 836.012C404.242 833.129 393.558 829.646 386.007 825.652C382.235 823.657 379.063 821.442 376.793 818.96C374.505 816.458 372.958 813.481 372.958 810.105C372.958 806.585 374.635 803.505 377.084 800.938C379.518 798.386 382.918 796.108 386.972 794.058C395.089 789.953 406.573 786.391 420.405 783.488C422.409 783.067 424.375 784.351 424.796 786.355Z" fill="#AC7349"/>
<path fill-rule="evenodd" clip-rule="evenodd" d="M402.625 633.958C404.673 633.958 406.333 635.619 406.333 637.667V730.408C406.333 756.292 415.285 781.349 437.715 793.248C456.054 802.976 482.475 811.959 517.583 811.959C552.691 811.959 579.113 802.976 597.451 793.248C619.881 781.349 628.833 756.292 628.833 730.408V637.667C628.833 635.619 630.493 633.958 632.541 633.958C634.59 633.958 636.25 635.619 636.25 637.667V730.408C636.25 757.628 626.814 786.067 600.927 799.799C581.619 810.041 554.013 819.375 517.583 819.375C481.154 819.375 453.547 810.042 434.24 799.799C408.352 786.067 398.917 757.628 398.917 730.408V637.667C398.917 635.619 400.577 633.958 402.625 633.958Z" fill="#2065CC"/>
<path fill-rule="evenodd" clip-rule="evenodd" d="M413.75 655.315V731.974C413.75 751.889 420.34 771.757 437.143 782.448C454.173 793.283 480.735 804.542 517.583 804.542C554.432 804.542 580.994 793.283 598.024 782.448C614.827 771.757 621.417 751.889 621.417 731.974V655.315C605.345 660.177 564.916 663.625 517.583 663.625C470.25 663.625 429.821 660.177 413.75 655.315Z" fill="#FFE7CB"/>
<path d="M598.024 782.448C614.826 771.757 621.417 751.889 621.417 731.974V655.315C612.752 657.936 597.007 660.147 576.917 661.627V793.353C585.112 789.989 592.137 786.193 598.024 782.448Z" fill="#F3D4AF"/>
<path d="M437.143 782.448C420.34 771.757 413.75 751.889 413.75 731.974V655.315C420.743 657.431 432.347 659.278 447.125 660.691V788.197C443.494 786.311 440.168 784.372 437.143 782.448Z" fill="#FFF3E4"/>
<path d="M413.75 696.107V731.973C413.75 751.888 420.34 771.757 437.143 782.447C454.173 793.283 480.735 804.542 517.583 804.542C554.432 804.542 580.994 793.283 598.024 782.447C614.827 771.757 621.417 751.888 621.417 731.973V696.107C605.345 700.968 564.916 704.417 517.583 704.417C470.25 704.417 429.821 700.968 413.75 696.107Z" fill="#75370A"/>
<path d="M598.024 782.447C614.826 771.757 621.417 751.888 621.417 731.973V696.107C612.752 698.728 597.007 700.938 576.917 702.419V793.353C585.112 789.989 592.137 786.193 598.024 782.447Z" fill="#572908"/>
<path d="M437.143 782.447C420.34 771.757 413.75 751.888 413.75 731.973V696.107C420.743 698.222 432.347 700.07 447.125 701.482V788.196C443.494 786.31 440.168 784.372 437.143 782.447Z" fill="#8E4917"/>
<path fill-rule="evenodd" clip-rule="evenodd" d="M597.108 652.357C576.611 654.749 548.498 656.209 517.583 656.209C486.668 656.209 458.555 654.749 438.058 652.357C427.859 651.167 419.276 649.717 413.104 648.015C410.075 647.179 407.197 646.17 404.92 644.872C403.783 644.224 402.443 643.307 401.313 642.009C400.142 640.663 398.917 638.559 398.917 635.813C398.917 633.066 400.142 630.962 401.313 629.616C402.443 628.318 403.783 627.402 404.92 626.754C407.197 625.456 410.075 624.446 413.104 623.611C419.276 621.909 427.859 620.458 438.058 619.268C458.555 616.877 486.668 615.417 517.583 615.417C548.498 615.417 576.611 616.877 597.108 619.268C607.307 620.458 615.891 621.909 622.063 623.611C625.091 624.446 627.97 625.456 630.246 626.754C631.383 627.402 632.723 628.318 633.853 629.616C635.025 630.962 636.25 633.066 636.25 635.813C636.25 638.559 635.025 640.663 633.853 642.009C632.723 643.307 631.383 644.224 630.246 644.872C627.97 646.17 625.091 647.179 622.063 648.015C615.891 649.717 607.307 651.167 597.108 652.357ZM517.583 648.792C579.025 648.792 628.833 642.981 628.833 635.813C628.833 628.645 579.025 622.834 517.583 622.834C456.141 622.834 406.333 628.645 406.333 635.813C406.333 642.981 456.141 648.792 517.583 648.792Z" fill="#2065CC"/>
<path fill-rule="evenodd" clip-rule="evenodd" d="M428.583 667.333C430.631 667.333 432.292 668.994 432.292 671.042V693.292C432.292 695.34 430.631 697 428.583 697C426.535 697 424.875 695.34 424.875 693.292V671.042C424.875 668.994 426.535 667.333 428.583 667.333Z" fill="white"/>
<path d="M406.333 611.416C406.333 594.438 420.222 580.676 437.355 580.676C440.306 580.676 443.161 581.084 445.865 581.847C451.315 566.826 465.818 556.083 482.853 556.083C499.044 556.083 512.947 565.786 518.964 579.644C523.052 577.679 527.64 576.577 532.488 576.577C546.038 576.577 557.559 585.186 561.785 597.185C567.491 597.73 572.632 600.19 576.546 603.909C581.31 599.658 587.616 597.07 594.531 597.07C609.38 597.07 621.417 608.998 621.417 623.712C621.417 627.343 620.684 630.804 619.356 633.958C619.356 633.958 609.62 645.083 517.81 645.083C426 645.083 416.264 633.958 416.264 633.958C410.156 628.344 406.333 620.322 406.333 611.416Z" fill="white"/>
<path d="M476.792 578.334C476.792 582.43 473.471 585.75 469.375 585.75C465.279 585.75 461.958 582.43 461.958 578.334C461.958 574.238 465.279 570.917 469.375 570.917C473.471 570.917 476.792 574.238 476.792 578.334Z" fill="#F9F9F9"/>
<path d="M454.542 596.875C454.542 600.971 451.221 604.292 447.125 604.292C443.029 604.292 439.708 600.971 439.708 596.875C439.708 592.779 443.029 589.458 447.125 589.458C451.221 589.458 454.542 592.779 454.542 596.875Z" fill="#F9F9F9"/>
<path d="M480.5 628.396C480.5 631.468 478.01 633.958 474.937 633.958C471.865 633.958 469.375 631.468 469.375 628.396C469.375 625.324 471.865 622.833 474.937 622.833C478.01 622.833 480.5 625.324 480.5 628.396Z" fill="#F9F9F9"/>
<path d="M510.167 595.021C510.167 598.093 507.676 600.583 504.604 600.583C501.532 600.583 499.042 598.093 499.042 595.021C499.042 591.949 501.532 589.458 504.604 589.458C507.676 589.458 510.167 591.949 510.167 595.021Z" fill="#F9F9F9"/>
<path d="M554.667 628.396C554.667 631.468 552.176 633.958 549.104 633.958C546.032 633.958 543.542 631.468 543.542 628.396C543.542 625.324 546.032 622.833 549.104 622.833C552.176 622.833 554.667 625.324 554.667 628.396Z" fill="#F9F9F9"/>
<path d="M536.125 630.25C536.125 634.346 532.804 637.667 528.708 637.667C524.612 637.667 521.292 634.346 521.292 630.25C521.292 626.154 524.612 622.833 528.708 622.833C532.804 622.833 536.125 626.154 536.125 630.25Z" fill="#F9F9F9"/>
<path d="M573.208 619.125C573.208 623.221 569.888 626.542 565.792 626.542C561.696 626.542 558.375 623.221 558.375 619.125C558.375 615.029 561.696 611.708 565.792 611.708C569.888 611.708 573.208 615.029 573.208 619.125Z" fill="#F9F9F9"/>
<path d="M432.292 608C432.292 612.096 428.971 615.417 424.875 615.417C420.779 615.417 417.458 612.096 417.458 608C417.458 603.904 420.779 600.583 424.875 600.583C428.971 600.583 432.292 603.904 432.292 608Z" fill="#F9F9F9"/>
<path d="M502.75 578.334C502.75 582.43 499.429 585.75 495.333 585.75C491.237 585.75 487.917 582.43 487.917 578.334C487.917 574.238 491.237 570.917 495.333 570.917C499.429 570.917 502.75 574.238 502.75 578.334Z" fill="#F9F9F9"/>
<path d="M510.167 624.688C510.167 629.808 506.016 633.959 500.896 633.959C495.776 633.959 491.625 629.808 491.625 624.688C491.625 619.568 495.776 615.417 500.896 615.417C506.016 615.417 510.167 619.568 510.167 624.688Z" fill="#F9F9F9"/>
<path d="M491.625 604.292C491.625 610.436 486.644 615.417 480.5 615.417C474.356 615.417 469.375 610.436 469.375 604.292C469.375 598.148 474.356 593.167 480.5 593.167C486.644 593.167 491.625 598.148 491.625 604.292Z" fill="#F9F9F9"/>
<path d="M458.25 622.833C458.25 628.978 453.269 633.958 447.125 633.958C440.981 633.958 436 628.978 436 622.833C436 616.689 440.981 611.708 447.125 611.708C453.269 611.708 458.25 616.689 458.25 622.833Z" fill="#F9F9F9"/>
<path d="M547.25 602.438C547.25 609.606 541.439 615.417 534.271 615.417C527.102 615.417 521.292 609.606 521.292 602.438C521.292 595.269 527.102 589.458 534.271 589.458C541.439 589.458 547.25 595.269 547.25 602.438Z" fill="#F9F9F9"/>
<path d="M606.583 619.125C606.583 625.27 601.602 630.25 595.458 630.25C589.314 630.25 584.333 625.27 584.333 619.125C584.333 612.981 589.314 608 595.458 608C601.602 608 606.583 612.981 606.583 619.125Z" fill="#F9F9F9"/>
<path d="M580.625 761.391C580.625 764.37 578.21 766.784 575.231 766.784C572.252 766.784 569.837 764.37 569.837 761.391C569.837 758.412 572.252 755.997 575.231 755.997C578.21 755.997 580.625 758.412 580.625 761.391Z" fill="#572908"/>
<path d="M564.443 750.602C564.443 753.581 562.028 755.996 559.049 755.996C556.07 755.996 553.655 753.581 553.655 750.602C553.655 747.623 556.07 745.208 559.049 745.208C562.028 745.208 564.443 747.623 564.443 750.602Z" fill="#572908"/>
<path d="M554.33 735.769C554.33 738.748 551.915 741.163 548.936 741.163C545.957 741.163 543.542 738.748 543.542 735.769C543.542 732.79 545.957 730.375 548.936 730.375C551.915 730.375 554.33 732.79 554.33 735.769Z" fill="#572908"/>
<path d="M540.171 753.637C540.171 755.871 538.36 757.682 536.125 757.682C533.891 757.682 532.08 755.871 532.08 753.637C532.08 751.403 533.891 749.591 536.125 749.591C538.36 749.591 540.171 751.403 540.171 753.637Z" fill="#572908"/>
<path d="M533.091 738.129C533.091 740.363 531.28 742.174 529.045 742.174C526.811 742.174 525 740.363 525 738.129C525 735.895 526.811 734.083 529.045 734.083C531.28 734.083 533.091 735.895 533.091 738.129Z" fill="#572908"/>
<path d="M521.966 760.379C521.966 762.613 520.155 764.424 517.92 764.424C515.686 764.424 513.875 762.613 513.875 760.379C513.875 758.145 515.686 756.333 517.92 756.333C520.155 756.333 521.966 758.145 521.966 760.379Z" fill="#572908"/>
<path d="M521.966 786.337C521.966 788.572 520.155 790.383 517.92 790.383C515.686 790.383 513.875 788.572 513.875 786.337C513.875 784.103 515.686 782.292 517.92 782.292C520.155 782.292 521.966 784.103 521.966 786.337Z" fill="#572908"/>
<path d="M542.867 788.36C542.867 791.339 540.453 793.754 537.474 793.754C534.495 793.754 532.08 791.339 532.08 788.36C532.08 785.381 534.495 782.966 537.474 782.966C540.453 782.966 542.867 785.381 542.867 788.36Z" fill="#572908"/>
<path d="M533.091 769.818C533.091 772.053 531.28 773.864 529.045 773.864C526.811 773.864 525 772.053 525 769.818C525 767.584 526.811 765.773 529.045 765.773C531.28 765.773 533.091 767.584 533.091 769.818Z" fill="#572908"/>
<path d="M559.049 770.83C559.049 774.554 556.03 777.572 552.307 777.572C548.583 777.572 545.564 774.554 545.564 770.83C545.564 767.106 548.583 764.087 552.307 764.087C556.03 764.087 559.049 767.106 559.049 770.83Z" fill="#572908"/>
<path d="M582.985 733.409C582.985 737.133 579.966 740.152 576.242 740.152C572.519 740.152 569.5 737.133 569.5 733.409C569.5 729.686 572.519 726.667 576.242 726.667C579.966 726.667 582.985 729.686 582.985 733.409Z" fill="#572908"/>
<path d="M575.231 780.269C575.231 783.248 572.816 785.663 569.837 785.663C566.858 785.663 564.443 783.248 564.443 780.269C564.443 777.29 566.858 774.875 569.837 774.875C572.816 774.875 575.231 777.29 575.231 780.269Z" fill="#572908"/>
<path d="M465.89 541.073C463.541 540.209 462.337 537.603 463.202 535.254C464.066 532.904 466.672 531.701 469.021 532.565C471.37 533.43 472.574 536.035 471.709 538.385C470.845 540.734 468.239 541.938 465.89 541.073Z" fill="#5A94FF"/>
<path d="M449.274 556.694C447.512 556.045 446.609 554.091 447.257 552.329C447.906 550.567 449.86 549.664 451.622 550.313C453.384 550.961 454.287 552.915 453.638 554.677C452.99 556.439 451.036 557.342 449.274 556.694Z" fill="#5A94FF"/>
<path d="M420.738 575.172C418.976 574.524 418.073 572.57 418.722 570.807C419.37 569.045 421.324 568.143 423.086 568.791C424.848 569.44 425.751 571.394 425.103 573.156C424.454 574.918 422.5 575.821 420.738 575.172Z" fill="#5A94FF"/>
<path d="M460.411 555.962C458.062 555.097 456.858 552.492 457.723 550.142C458.587 547.793 461.193 546.589 463.542 547.454C465.891 548.319 467.095 550.924 466.23 553.273C465.366 555.623 462.76 556.826 460.411 555.962Z" fill="#5A94FF"/>
<path d="M437.193 576.398C433.081 574.884 430.975 570.325 432.488 566.214C434.001 562.102 438.56 559.996 442.672 561.509C446.783 563.022 448.89 567.581 447.377 571.693C445.863 575.804 441.304 577.911 437.193 576.398Z" fill="#5A94FF"/>
<path d="M483.024 542.856C483.547 544.81 482.388 546.818 480.434 547.342C478.48 547.865 476.472 546.706 475.948 544.752C475.424 542.798 476.584 540.789 478.538 540.266C480.492 539.742 482.5 540.902 483.024 542.856Z" fill="#5A94FF"/>
<path d="M501.018 550.393C501.41 551.859 500.541 553.365 499.075 553.757C497.61 554.15 496.104 553.28 495.711 551.815C495.318 550.35 496.188 548.843 497.653 548.451C499.119 548.058 500.625 548.928 501.018 550.393Z" fill="#5A94FF"/>
<path d="M526.511 560.626C526.904 562.091 526.034 563.598 524.569 563.99C523.103 564.383 521.597 563.513 521.204 562.048C520.811 560.583 521.681 559.076 523.147 558.684C524.612 558.291 526.118 559.161 526.511 560.626Z" fill="#5A94FF"/>
<path d="M495.407 539.538C495.93 541.492 494.771 543.5 492.817 544.024C490.863 544.547 488.854 543.388 488.331 541.434C487.807 539.48 488.967 537.472 490.921 536.948C492.875 536.424 494.883 537.584 495.407 539.538Z" fill="#5A94FF"/>
<path d="M519.655 549.191C520.572 552.611 518.542 556.125 515.123 557.042C511.704 557.958 508.189 555.929 507.273 552.509C506.357 549.09 508.386 545.575 511.805 544.659C515.224 543.743 518.739 545.772 519.655 549.191Z" fill="#5A94FF"/>
<path d="M566.395 580.191C566.578 581.866 565.369 583.372 563.694 583.554C562.02 583.737 560.514 582.528 560.331 580.853C560.148 579.179 561.358 577.673 563.032 577.49C564.707 577.307 566.213 578.517 566.395 580.191Z" fill="#5A94FF"/>
<path d="M580.785 585.524C580.922 586.779 580.015 587.909 578.759 588.046C577.503 588.183 576.374 587.276 576.237 586.02C576.099 584.764 577.006 583.635 578.262 583.498C579.518 583.361 580.648 584.268 580.785 585.524Z" fill="#5A94FF"/>
<path d="M577.008 579.032C577.191 580.707 575.981 582.212 574.307 582.395C572.632 582.578 571.126 581.369 570.943 579.694C570.761 578.02 571.97 576.514 573.644 576.331C575.319 576.148 576.825 577.357 577.008 579.032Z" fill="#5A94FF"/>
<path d="M596.277 586.9C596.597 589.83 594.481 592.465 591.55 592.785C588.62 593.105 585.984 590.989 585.664 588.059C585.344 585.128 587.461 582.493 590.391 582.173C593.322 581.853 595.957 583.969 596.277 586.9Z" fill="#5A94FF"/>
<path d="M555.806 571.076C555.454 569.761 556.234 568.41 557.549 568.057C558.863 567.705 560.215 568.485 560.567 569.8C560.919 571.115 560.139 572.466 558.824 572.819C557.51 573.171 556.158 572.391 555.806 571.076Z" fill="#5A94FF"/>
<path d="M543.658 568.59C543.393 567.604 543.979 566.59 544.965 566.326C545.951 566.062 546.964 566.647 547.229 567.633C547.493 568.619 546.908 569.633 545.922 569.897C544.935 570.161 543.922 569.576 543.658 568.59Z" fill="#5A94FF"/>
<path d="M518.419 570.585C518.155 569.599 518.74 568.586 519.726 568.322C520.712 568.057 521.726 568.642 521.99 569.629C522.254 570.615 521.669 571.628 520.683 571.892C519.697 572.157 518.683 571.572 518.419 570.585Z" fill="#5A94FF"/>
<path d="M547.473 573.309C547.121 571.994 547.901 570.642 549.216 570.29C550.531 569.938 551.882 570.718 552.235 572.033C552.587 573.348 551.807 574.699 550.492 575.051C549.177 575.404 547.826 574.624 547.473 573.309Z" fill="#5A94FF"/>
<path d="M531.116 569.399C530.5 567.098 531.865 564.733 534.166 564.116C536.467 563.5 538.832 564.865 539.449 567.166C540.065 569.467 538.7 571.832 536.399 572.448C534.098 573.065 531.733 571.699 531.116 569.399Z" fill="#5A94FF"/>
<g filter="url(#filter0_f_1730_1008)">
<path d="M319.971 699.033L618.765 688.622L653.863 892.665L327.115 904.05L319.971 699.033Z" fill="url(#paint36_linear_1730_1008)"/>
</g>
<g filter="url(#filter1_f_1730_1008)">
<path d="M0 664H432.533L473 898H0V664Z" fill="url(#paint37_linear_1730_1008)"/>
</g>
<g filter="url(#filter2_f_1730_1008)">
<path d="M299 785H625.457L656 849H299V785Z" fill="#0BA1FF"/>
</g>
</g>
<defs>
<filter id="filter0_f_1730_1008" x="269.971" y="638.622" width="433.892" height="315.428" filterUnits="userSpaceOnUse" color-interpolation-filters="sRGB">
<feFlood flood-opacity="0" result="BackgroundImageFix"/>
<feBlend mode="normal" in="SourceGraphic" in2="BackgroundImageFix" result="shape"/>
<feGaussianBlur stdDeviation="25" result="effect1_foregroundBlur_1730_1008"/>
</filter>
<filter id="filter1_f_1730_1008" x="-30" y="634" width="533" height="294" filterUnits="userSpaceOnUse" color-interpolation-filters="sRGB">
<feFlood flood-opacity="0" result="BackgroundImageFix"/>
<feBlend mode="normal" in="SourceGraphic" in2="BackgroundImageFix" result="shape"/>
<feGaussianBlur stdDeviation="15" result="effect1_foregroundBlur_1730_1008"/>
</filter>
<filter id="filter2_f_1730_1008" x="269" y="755" width="417" height="124" filterUnits="userSpaceOnUse" color-interpolation-filters="sRGB">
<feFlood flood-opacity="0" result="BackgroundImageFix"/>
<feBlend mode="normal" in="SourceGraphic" in2="BackgroundImageFix" result="shape"/>
<feGaussianBlur stdDeviation="15" result="effect1_foregroundBlur_1730_1008"/>
</filter>
<linearGradient id="paint0_linear_1730_1008" x1="300" y1="0" x2="300" y2="896" gradientUnits="userSpaceOnUse">
<stop stop-color="#3ABDFF"/>
<stop offset="1" stop-color="#0C4FFA"/>
</linearGradient>
<linearGradient id="paint1_linear_1730_1008" x1="95.0096" y1="362.686" x2="86.5659" y2="308.677" gradientUnits="userSpaceOnUse">
<stop stop-color="#31111B"/>
<stop offset="1" stop-color="#1A0F21"/>
</linearGradient>
<linearGradient id="paint2_linear_1730_1008" x1="144.077" y1="332.933" x2="139.443" y2="303.291" gradientUnits="userSpaceOnUse">
<stop stop-color="#F7A393"/>
<stop offset="0.43" stop-color="#F5A794"/>
<stop offset="0.51" stop-color="#F5A18E"/>
<stop offset="0.76" stop-color="#F59584"/>
<stop offset="1" stop-color="#F69181"/>
</linearGradient>
<linearGradient id="paint3_linear_1730_1008" x1="142.877" y1="325.218" x2="139.687" y2="304.812" gradientUnits="userSpaceOnUse">
<stop stop-color="#F7A393"/>
<stop offset="0.43" stop-color="#F5A794"/>
<stop offset="0.51" stop-color="#F5A18E"/>
<stop offset="0.76" stop-color="#F59584"/>
<stop offset="1" stop-color="#F69181"/>
</linearGradient>
<linearGradient id="paint4_linear_1730_1008" x1="139.191" y1="318.115" x2="137.805" y2="309.255" gradientUnits="userSpaceOnUse">
<stop stop-color="#F7A393"/>
<stop offset="0.43" stop-color="#F5A794"/>
<stop offset="0.51" stop-color="#F5A18E"/>
<stop offset="0.76" stop-color="#F59584"/>
<stop offset="1" stop-color="#F69181"/>
</linearGradient>
<linearGradient id="paint5_linear_1730_1008" x1="132.434" y1="319.928" x2="142.13" y2="318.411" gradientUnits="userSpaceOnUse">
<stop stop-color="#F7A393"/>
<stop offset="0.43" stop-color="#F5A794"/>
<stop offset="0.51" stop-color="#F5A18E"/>
<stop offset="0.76" stop-color="#F59584"/>
<stop offset="1" stop-color="#F69181"/>
</linearGradient>
<linearGradient id="paint6_linear_1730_1008" x1="-79.4174" y1="690.356" x2="55.1038" y2="669.304" gradientUnits="userSpaceOnUse">
<stop stop-color="#F7A393"/>
<stop offset="0.43" stop-color="#F5A794"/>
<stop offset="0.51" stop-color="#F5A18E"/>
<stop offset="0.76" stop-color="#F59584"/>
<stop offset="1" stop-color="#F69181"/>
</linearGradient>
<linearGradient id="paint7_linear_1730_1008" x1="144.215" y1="376.131" x2="243.366" y2="360.614" gradientUnits="userSpaceOnUse">
<stop stop-color="#F7A393"/>
<stop offset="0.43" stop-color="#F5A794"/>
<stop offset="0.51" stop-color="#F5A18E"/>
<stop offset="0.76" stop-color="#F59584"/>
<stop offset="1" stop-color="#F69181"/>
</linearGradient>
<linearGradient id="paint8_linear_1730_1008" x1="204.196" y1="331.495" x2="241.456" y2="325.664" gradientUnits="userSpaceOnUse">
<stop stop-color="#F7A393"/>
<stop offset="0.43" stop-color="#F5A794"/>
<stop offset="0.51" stop-color="#F5A18E"/>
<stop offset="0.76" stop-color="#F59584"/>
<stop offset="1" stop-color="#F69181"/>
</linearGradient>
<linearGradient id="paint9_linear_1730_1008" x1="169.767" y1="790.403" x2="226.727" y2="800.832" gradientUnits="userSpaceOnUse">
<stop stop-color="#F7A393"/>
<stop offset="0.43" stop-color="#F5A794"/>
<stop offset="0.51" stop-color="#F5A18E"/>
<stop offset="0.76" stop-color="#F59584"/>
<stop offset="1" stop-color="#F69181"/>
</linearGradient>
<linearGradient id="paint10_linear_1730_1008" x1="58.9479" y1="381.038" x2="140.187" y2="368.325" gradientUnits="userSpaceOnUse">
<stop stop-color="#F9AD99"/>
<stop offset="0.18" stop-color="#F79B8D"/>
<stop offset="0.46" stop-color="#F48781"/>
<stop offset="0.73" stop-color="#F37B79"/>
<stop offset="1" stop-color="#F37777"/>
</linearGradient>
<linearGradient id="paint11_linear_1730_1008" x1="43.4267" y1="316.174" x2="132.428" y2="302.245" gradientUnits="userSpaceOnUse">
<stop stop-color="#F7A393"/>
<stop offset="0.43" stop-color="#F5A794"/>
<stop offset="0.51" stop-color="#F5A18E"/>
<stop offset="0.76" stop-color="#F59584"/>
<stop offset="1" stop-color="#F69181"/>
</linearGradient>
<linearGradient id="paint12_linear_1730_1008" x1="-116.832" y1="511.544" x2="66.6744" y2="482.826" gradientUnits="userSpaceOnUse">
<stop stop-color="#F7A393"/>
<stop offset="0.43" stop-color="#F5A794"/>
<stop offset="0.51" stop-color="#F5A18E"/>
<stop offset="0.76" stop-color="#F59584"/>
<stop offset="1" stop-color="#F69181"/>
</linearGradient>
<linearGradient id="paint13_linear_1730_1008" x1="49.5651" y1="355.427" x2="43.6114" y2="317.345" gradientUnits="userSpaceOnUse">
<stop stop-color="#F7A393"/>
<stop offset="0.43" stop-color="#F5A794"/>
<stop offset="0.51" stop-color="#F5A18E"/>
<stop offset="0.76" stop-color="#F59584"/>
<stop offset="1" stop-color="#F69181"/>
</linearGradient>
<linearGradient id="paint14_linear_1730_1008" x1="48.0054" y1="345.519" x2="43.9073" y2="319.306" gradientUnits="userSpaceOnUse">
<stop stop-color="#F7A393"/>
<stop offset="0.43" stop-color="#F5A794"/>
<stop offset="0.51" stop-color="#F5A18E"/>
<stop offset="0.76" stop-color="#F59584"/>
<stop offset="1" stop-color="#F69181"/>
</linearGradient>
<linearGradient id="paint15_linear_1730_1008" x1="50.6988" y1="335.232" x2="48.9184" y2="323.845" gradientUnits="userSpaceOnUse">
<stop stop-color="#F7A393"/>
<stop offset="0.43" stop-color="#F5A794"/>
<stop offset="0.51" stop-color="#F5A18E"/>
<stop offset="0.76" stop-color="#F59584"/>
<stop offset="1" stop-color="#F69181"/>
</linearGradient>
<linearGradient id="paint16_linear_1730_1008" x1="39.2761" y1="337.771" x2="55.4207" y2="335.245" gradientUnits="userSpaceOnUse">
<stop stop-color="#F7A393"/>
<stop offset="0.43" stop-color="#F5A794"/>
<stop offset="0.51" stop-color="#F5A18E"/>
<stop offset="0.76" stop-color="#F59584"/>
<stop offset="1" stop-color="#F69181"/>
</linearGradient>
<linearGradient id="paint17_linear_1730_1008" x1="119.558" y1="314.49" x2="117.889" y2="302.486" gradientUnits="userSpaceOnUse">
<stop stop-color="#E8DCED"/>
<stop offset="1" stop-color="#BBC3E3"/>
</linearGradient>
<linearGradient id="paint18_linear_1730_1008" x1="119.191" y1="313.942" x2="116.752" y2="303.202" gradientUnits="userSpaceOnUse">
<stop stop-color="#48204B"/>
<stop offset="1" stop-color="#301138"/>
</linearGradient>
<linearGradient id="paint19_linear_1730_1008" x1="119.12" y1="313.631" x2="116.825" y2="303.521" gradientUnits="userSpaceOnUse">
<stop stop-color="#57345B"/>
<stop offset="1" stop-color="#301138"/>
</linearGradient>
<linearGradient id="paint20_linear_1730_1008" x1="118.717" y1="311.853" x2="117.227" y2="305.292" gradientUnits="userSpaceOnUse">
<stop stop-color="#A295B8"/>
<stop offset="0.99" stop-color="#734B61"/>
</linearGradient>
<linearGradient id="paint21_linear_1730_1008" x1="108.009" y1="307.303" x2="127.528" y2="302.867" gradientUnits="userSpaceOnUse">
<stop stop-color="#F7A393"/>
<stop offset="0.43" stop-color="#F5A794"/>
<stop offset="0.51" stop-color="#F5A18E"/>
<stop offset="0.76" stop-color="#F59584"/>
<stop offset="1" stop-color="#F69181"/>
</linearGradient>
<linearGradient id="paint22_linear_1730_1008" x1="76.2323" y1="321.288" x2="74.1559" y2="309.347" gradientUnits="userSpaceOnUse">
<stop stop-color="#E8DCED"/>
<stop offset="1" stop-color="#BBC3E3"/>
</linearGradient>
<linearGradient id="paint23_linear_1730_1008" x1="76.4334" y1="320.673" x2="75.4759" y2="309.702" gradientUnits="userSpaceOnUse">
<stop stop-color="#48204B"/>
<stop offset="1" stop-color="#301138"/>
</linearGradient>
<linearGradient id="paint24_linear_1730_1008" x1="76.3635" y1="320.32" x2="75.464" y2="309.993" gradientUnits="userSpaceOnUse">
<stop stop-color="#57345B"/>
<stop offset="1" stop-color="#301138"/>
</linearGradient>
<linearGradient id="paint25_linear_1730_1008" x1="76.233" y1="318.52" x2="75.6481" y2="311.817" gradientUnits="userSpaceOnUse">
<stop stop-color="#A295B8"/>
<stop offset="0.99" stop-color="#734B61"/>
</linearGradient>
<linearGradient id="paint26_linear_1730_1008" x1="85.0379" y1="310.918" x2="65.0881" y2="312.661" gradientUnits="userSpaceOnUse">
<stop stop-color="#F7A393"/>
<stop offset="0.43" stop-color="#F5A794"/>
<stop offset="0.51" stop-color="#F5A18E"/>
<stop offset="0.76" stop-color="#F59584"/>
<stop offset="1" stop-color="#F69181"/>
</linearGradient>
<linearGradient id="paint27_linear_1730_1008" x1="100.82" y1="330.211" x2="98.9573" y2="318.298" gradientUnits="userSpaceOnUse">
<stop stop-color="#F37A7F"/>
<stop offset="0.47" stop-color="#F4837F"/>
<stop offset="1" stop-color="#F58880"/>
</linearGradient>
<linearGradient id="paint28_linear_1730_1008" x1="107.393" y1="325.24" x2="106.368" y2="318.681" gradientUnits="userSpaceOnUse">
<stop stop-color="#FCE4D6"/>
<stop offset="0.99" stop-color="#AE7DB7"/>
</linearGradient>
<linearGradient id="paint29_linear_1730_1008" x1="93.2273" y1="327.462" x2="92.2018" y2="320.902" gradientUnits="userSpaceOnUse">
<stop stop-color="#FCE4D6"/>
<stop offset="0.99" stop-color="#AE7DB7"/>
</linearGradient>
<linearGradient id="paint30_linear_1730_1008" x1="76.305" y1="339.04" x2="70.6098" y2="302.611" gradientUnits="userSpaceOnUse">
<stop stop-color="#FCE4D6"/>
<stop offset="0.99" stop-color="#AE7DB7"/>
</linearGradient>
<linearGradient id="paint31_linear_1730_1008" x1="123.75" y1="329.482" x2="118.55" y2="296.22" gradientUnits="userSpaceOnUse">
<stop stop-color="#FCE4D6"/>
<stop offset="0.99" stop-color="#AE7DB7"/>
</linearGradient>
<linearGradient id="paint32_linear_1730_1008" x1="97.5524" y1="314.432" x2="96.9794" y2="310.767" gradientUnits="userSpaceOnUse">
<stop stop-color="#FCE4D6"/>
<stop offset="0.99" stop-color="#AE7DB7"/>
</linearGradient>
<linearGradient id="paint33_linear_1730_1008" x1="52.4688" y1="320.45" x2="51.3736" y2="313.444" gradientUnits="userSpaceOnUse">
<stop stop-color="#FCE4D6"/>
<stop offset="0.99" stop-color="#AE7DB7"/>
</linearGradient>
<linearGradient id="paint34_linear_1730_1008" x1="1.80674" y1="270.468" x2="40.2442" y2="264.545" gradientUnits="userSpaceOnUse">
<stop stop-color="#827FBC"/>
<stop offset="1" stop-color="white"/>
</linearGradient>
<linearGradient id="paint35_linear_1730_1008" x1="10.6014" y1="283.22" x2="38.2897" y2="278.954" gradientUnits="userSpaceOnUse">
<stop stop-color="#827FBC"/>
<stop offset="1" stop-color="white"/>
</linearGradient>
<linearGradient id="paint36_linear_1730_1008" x1="430.772" y1="204.784" x2="536.084" y2="891.364" gradientUnits="userSpaceOnUse">
<stop stop-color="#0BFFD6" stop-opacity="0.51"/>
<stop offset="1" stop-color="#0B60FF"/>
</linearGradient>
<linearGradient id="paint37_linear_1730_1008" x1="237.162" y1="570.267" x2="237.162" y2="841.494" gradientUnits="userSpaceOnUse">
<stop stop-color="#0BE7FF" stop-opacity="0.1"/>
<stop offset="1" stop-color="#0B91FF"/>
</linearGradient>
<clipPath id="clip0_1730_1008">
<rect width="600" height="896" fill="white"/>
</clipPath>
</defs>
</svg>
