<svg width="414" height="896" viewBox="0 0 414 896" fill="none" xmlns="http://www.w3.org/2000/svg">
<g clip-path="url(#clip0_1729_732)">
<rect width="414" height="896" fill="url(#paint0_linear_1729_732)"/>
<path d="M148.126 314.401C148.126 314.401 145.938 290.127 145.167 289.959C145.07 277.574 121.855 261.197 116.701 257.629C88.7564 238.313 71.1574 239.499 42.4161 267.907C19.7331 290.322 27.3856 329.964 28.1916 332.699C22.2307 335.895 27.793 344.261 34.1701 343.004C34.1701 343.004 32.3101 348.333 38.1381 350.555C43.9661 352.777 45.8349 350.829 45.8349 350.829C45.8349 350.829 41.8492 356.672 50.1926 358.496C50.1926 358.496 46.5081 360.638 52.2032 362.612C57.8983 364.586 62.69 356.158 62.69 356.158C62.69 356.158 61.9991 362.647 67.464 364.135C72.9288 365.622 79.2439 359.159 79.2439 359.159C79.2439 359.159 84.939 366.348 90.085 365.551C95.231 364.745 98.4549 359.027 98.4549 359.027C98.4549 359.027 97.8438 363.125 102.945 362.408C107.569 361.762 107.135 354.777 107.011 353.467C107.161 354.795 108.1 361.913 111.041 361.142C116.798 359.638 115.434 354.963 116.47 356.38C117.507 357.787 122.644 356.486 126.948 353.52C130.872 350.82 128.923 346.173 128.923 346.173C128.923 346.173 132.794 347.394 135.389 342.986C135.389 342.986 135.655 349.475 140.597 346.518C144.928 343.924 140.012 336.408 140.012 336.408C140.012 336.408 143.617 338.887 147.922 336.178C151.376 334.009 146.274 330.327 146.274 330.327C146.274 330.327 152.669 331.761 154.565 328.857C156.46 325.953 148.126 314.392 148.126 314.392V314.401Z" fill="url(#paint1_linear_1729_732)"/>
<path d="M141.261 309.576C141.261 310.505 141.226 311.346 141.164 312.099V312.134C140.73 317.534 139.029 319.057 138.64 321.518C138.303 323.652 136.355 328.131 133.131 324.289L133.122 324.28C133.122 324.28 131.643 306.858 132.13 303.574C132.13 303.574 132.803 298.652 135.239 297.545C138.365 296.12 141.288 301.361 141.27 309.567L141.261 309.576Z" fill="url(#paint2_linear_1729_732)"/>
<path style="mix-blend-mode:multiply" opacity="0.6" d="M132.325 313.462C132.325 313.462 135.93 303.051 138.277 302.033C140.624 301.024 140.677 309.372 140.606 312.161C140.544 314.958 140.057 316.676 140.057 316.676C140.057 316.676 140.172 313.374 139.889 310.753C139.481 307 138.064 303.937 137.081 304.406C136.098 304.875 135.46 309.779 135.451 310.319C135.451 310.868 136.364 311.7 136.771 314.604C137.178 317.508 136.603 320.819 136.018 320.872C135.434 320.925 135.318 318.543 134.893 315.835C134.468 313.126 132.918 313.914 132.475 315.781L132.325 313.453V313.462Z" fill="url(#paint3_linear_1729_732)"/>
<path style="mix-blend-mode:multiply" opacity="0.6" d="M132.475 315.782C132.475 315.782 133.388 313.002 134.353 314.047C135.327 315.091 135.265 318.429 135.93 318.721C136.594 319.013 136.992 316.269 136.461 313.896C135.93 311.524 134.858 309.488 133.875 310.054L132.325 313.462L132.475 315.791V315.782Z" fill="url(#paint4_linear_1729_732)"/>
<path style="mix-blend-mode:multiply" d="M141.155 312.134C140.721 317.534 139.029 319.057 138.631 321.518C138.294 323.652 136.346 328.131 133.122 324.289C133.299 324.431 135.026 325.75 136.416 324.811C137.887 323.811 138.09 321.819 138.524 320.226C138.958 318.641 140.517 317.349 141.155 312.125V312.134Z" fill="url(#paint5_linear_1729_732)"/>
<path d="M52.2916 360.647C47.181 361.771 41.0165 361.142 38.5011 356.867C38.4568 356.875 31.752 358.442 27.2171 347.58C23.2846 338.152 25.7025 333.398 25.7025 333.398C25.7025 333.398 21.8851 330.229 21.3006 327.759C19.9809 322.191 21.6549 312.772 25.6228 312.612C29.5997 312.453 32.4782 315.419 32.4782 315.419C32.4782 315.419 35.1088 309.001 38.2973 309.576C41.4859 310.151 49.5282 321.076 49.5282 321.076C49.5282 321.076 54.063 317.216 55.9318 319.562C57.8007 321.908 60.1655 327.848 60.1655 327.848C60.1655 327.848 65.4266 330.601 64.6029 336.922C64.6029 336.922 66.7286 341.224 62.5835 344.783C61.6889 345.553 60.4932 346.288 58.9344 346.934C58.9344 346.934 61.3878 351.139 60.0327 355.875C59.4481 357.92 56.1798 359.788 52.3004 360.647H52.2916Z" fill="#010101"/>
<path d="M60.0773 700.905L-87.0303 622.993L-85.3209 652.472L39.9717 740.228C46.7208 727.135 53.4433 714.042 60.0773 700.905Z" fill="url(#paint6_linear_1729_732)"/>
<path opacity="0.2" d="M60.0772 700.905L-42.6031 646.523C-47.262 655.048 -51.7525 663.981 -56.8896 672.391L39.9716 740.237C46.7207 727.144 53.4432 714.051 60.0772 700.914V700.905Z" fill="#201829"/>
<path d="M144.919 370.447L213.155 381.583L211.179 307.408C218.867 304.938 225.661 308.603 233.118 305.46C237.06 321.97 251.284 395.323 246.218 411.231C238.264 436.195 149.375 409.08 149.375 409.08L144.911 370.456L144.919 370.447Z" fill="url(#paint7_linear_1729_732)"/>
<path d="M233.375 304.672C233.375 304.672 236.626 280.442 233.729 280.903C230.833 281.354 229.274 292.721 229.274 292.721C229.274 292.721 230.426 274.015 228.194 273.989C225.962 273.971 221.391 292.101 221.391 292.101C221.391 292.101 221.666 270.191 219.859 270.474C218.052 270.758 214.341 292.092 214.341 292.092C214.341 292.092 211.852 276.175 208.956 276.627C206.06 277.078 209.434 301.007 209.434 301.007C209.434 301.007 201.649 296.297 199.824 298.803C197.991 301.317 210.967 310.771 210.967 310.771L213.146 388.621L231.976 324.156L233.375 304.663V304.672Z" fill="url(#paint8_linear_1729_732)"/>
<path d="M200.648 621.736L148.701 960.87L180.118 961.304L242.463 714.883L200.648 621.736Z" fill="url(#paint9_linear_1729_732)"/>
<path opacity="0.2" d="M199.417 921.042L145.726 633.156L209.886 607.067L228.557 916.12C218.779 917.324 208.983 919.378 199.408 921.033L199.417 921.042Z" fill="#201829"/>
<path d="M172.819 445.693L179.648 532.688L70.8652 535.246L93.442 476.297L172.819 445.693Z" fill="#1ED6F7"/>
<path d="M102.928 340.684L113.628 374.527L140.624 371.057L114.841 415.214L60.7329 392.348L81.6977 382.734L71.4589 336.134L102.928 340.684Z" fill="url(#paint10_linear_1729_732)"/>
<path d="M77.8361 258.869C77.8361 258.869 117.294 254.141 131.058 298.944C144.831 343.738 113.087 360.319 90.7852 359.992C68.483 359.664 50.4234 338.409 45.3748 325.219C40.3174 312.028 42.3191 264.906 77.8361 258.877V258.869Z" fill="url(#paint11_linear_1729_732)"/>
<path d="M175.034 480.405C175.034 480.405 144.689 498.783 86.2059 497.897C86.2059 497.897 42.195 552.819 43.7538 613.636C44.8433 656.323 63.7177 758.358 63.7177 758.358C63.7177 758.358 117.826 802.471 131.359 763.581C144.893 724.692 157.86 570.568 157.86 570.568L127.728 607.138L163.617 793.981L136.24 904.453L223.34 901.345C223.34 901.345 251.524 842.21 255.571 782.676C261.851 690.282 219.904 564.885 175.034 480.405V480.405Z" fill="#0FA2FD"/>
<path d="M95.6207 759.713C103.681 738.794 112.75 715.742 117.276 692.522C44.843 665.158 -26.439 638.485 -26.439 638.485L-52.6914 712.281L96.7456 777.568C100.297 769.867 92.565 767.636 95.6207 759.713Z" fill="#0FA2FD"/>
<path d="M26.2787 414.922L-79.9533 553.155C-79.9533 553.155 -94.9661 543.736 -98.4115 547.118C-107.348 555.873 -114.434 585.724 -98.509 556.085C-98.509 556.085 -113.681 603.172 -91.7599 557.794C-91.7599 557.794 -100.9 601.012 -84.8513 563.442C-84.8513 563.442 -89.5456 599.932 -80.0862 567.24C-80.0862 567.24 -74.6922 574.658 -67.8014 568.461C-60.9017 562.264 54.5683 451.439 58.8019 437.425C63.0356 423.412 26.2698 414.922 26.2698 414.922H26.2787Z" fill="url(#paint12_linear_1729_732)"/>
<path opacity="0.2" d="M148.683 585.131C171.606 567.744 188.346 548.402 200.347 530.953C229.053 600.765 248.981 679.101 257.998 750.674C259.92 826.948 223.34 901.345 223.34 901.345L136.239 904.453L164.352 793.84L143.546 687.387L142.988 683.802C144.042 607.82 148.683 585.149 148.683 585.149V585.131Z" fill="#0FA2FD"/>
<path opacity="0.2" d="M88.9692 487.973L93.4421 476.288L172.819 445.693L175.583 480.856C152.076 486.521 118.295 492.249 88.9692 487.973Z" fill="#201829"/>
<path d="M149.481 370.987L185.148 374.926L182.163 426.218L149.481 370.987Z" fill="#161C40"/>
<path d="M123.618 373.165C123.618 373.165 136.771 368.119 148.073 370.332C159.374 372.545 181.225 403.972 187.398 417.941C193.571 431.91 198.044 454.104 198.044 454.104C198.044 454.104 115.93 495.817 80.2803 484.468L56.9064 443.321L39.8919 461.912L2.47949 432.92C2.47949 432.92 23.0457 398.837 47.0396 393.101L68.9432 386.691C68.9432 386.691 124.123 401.953 123.6 373.165H123.618Z" fill="#161C40"/>
<path d="M36.7034 326.67C37.1286 327.795 37.5626 328.804 37.9966 329.689L38.0231 329.733C41.1408 336.09 44.5331 337.17 46.2691 339.994C47.7748 342.428 52.8942 346.987 56.3042 340.879C56.3131 340.87 56.3219 340.861 56.3219 340.861C56.3219 340.861 50.8305 319.04 48.572 315.277C48.572 315.277 45.2771 309.612 40.9017 309.355C35.2774 309.027 32.9746 316.711 36.7034 326.67V326.67Z" fill="url(#paint13_linear_1729_732)"/>
<path style="mix-blend-mode:multiply" opacity="0.6" d="M52.6992 327.361C52.6992 327.361 42.2567 316.34 38.0584 316.171C33.8601 316.003 37.5358 326.157 38.8998 329.521C40.2638 332.885 41.8138 334.753 41.8138 334.753C41.8138 334.753 40.1398 330.796 39.4224 327.494C38.3861 322.749 39.263 318.393 41.0344 318.517C42.8058 318.641 46.0475 324.307 46.2955 324.971C46.5524 325.635 45.4629 327.06 46.1184 330.769C46.7738 334.479 49.1829 338.241 50.1483 338.037C51.1049 337.834 50.2192 334.895 49.6789 331.416C49.1386 327.937 51.9552 328.193 53.514 330.256L52.6992 327.361V327.361Z" fill="url(#paint14_linear_1729_732)"/>
<path style="mix-blend-mode:multiply" opacity="0.6" d="M53.5141 330.256C53.5141 330.256 50.8127 327.29 49.7321 328.999C48.6516 330.707 50.2547 334.726 49.3247 335.381C48.3947 336.037 46.5259 332.876 46.3045 329.76C46.083 326.635 46.8713 323.687 48.6959 323.926L52.7081 327.361L53.523 330.256H53.5141Z" fill="url(#paint15_linear_1729_732)"/>
<path style="mix-blend-mode:multiply" d="M38.0229 329.733C41.1406 336.09 44.5329 337.17 46.2689 339.994C47.7746 342.428 52.894 346.987 56.304 340.879C56.0826 341.127 53.9303 343.517 51.2909 342.995C48.5009 342.446 47.2786 340.117 45.8615 338.382C44.4532 336.647 41.3886 335.789 38.0229 329.733V329.733Z" fill="url(#paint16_linear_1729_732)"/>
<path d="M26.6506 305.902C28.5018 309.842 30.3972 304.389 30.3972 304.389C32.638 310.523 37.3146 310.267 37.3146 310.267C37.3146 310.267 33.3112 313.144 34.3563 317.455C35.3926 321.766 43.2931 319.597 43.2931 319.597C43.2931 319.597 43.0186 327.812 47.022 328.016C51.0342 328.22 49.8917 324.891 49.8917 324.891C54.8871 325.741 51.6808 321.217 51.6808 321.217C52.9562 319.341 47.7925 315.33 47.7925 315.33C50.1308 314.48 48.6251 309.815 48.6251 309.815C49.9005 311.825 53.5497 309.567 53.5497 309.567C53.5497 309.567 55.3565 312.382 58.0491 311.4C60.7505 310.408 57.1545 300.175 57.1545 300.175C59.5902 298.67 54.4619 288.109 54.4619 288.109C54.4619 288.109 56.7205 289.065 57.7213 287.799C58.7045 286.559 56.4193 282.691 56.3308 282.54C56.4016 282.629 57.5974 283.983 61.6539 282.85C65.7636 281.699 64.559 275.033 64.497 274.963C68.4916 275.777 71.8661 272.254 71.8661 272.254C71.8661 272.254 73.8678 275.6 75.4975 275.104C77.1272 274.608 81.2989 267.863 81.2989 267.863C84.8506 268.527 88.048 266.685 88.048 266.685C87.7115 266.977 92.0426 273.254 94.7352 271.926C97.3214 270.651 97.6669 269.394 97.6934 269.306C97.7112 269.43 98.0654 272.147 101.068 276.76C104.141 281.487 107.622 278.636 107.622 278.636C107.622 278.636 107.64 284.346 108.738 286.453C109.837 288.56 111.572 290.162 111.572 290.162C111.572 290.162 112.945 295.146 114.841 294.066C116.736 292.995 116.346 291.163 116.373 290.596C116.4 290.03 117.622 292.119 120.704 292.73C123.786 293.34 122.546 289.667 122.546 289.667C124.088 291.508 126.532 290.455 126.532 290.455C126.532 290.455 126.957 296.527 128.773 298.316C132.909 302.397 134.318 293.978 134.318 293.978C137.205 292.659 135.221 288.923 135.221 288.923C135.221 288.923 136.124 289.737 137.745 287.905C139.357 286.064 138.48 279.46 136.24 277.052C134.158 274.821 133.954 277.105 133.937 277.45C133.937 277.477 133.937 277.494 133.937 277.494C133.937 277.494 138.613 273.785 138.162 271.413C137.71 269.049 134.805 265.101 134.805 265.101C134.805 265.101 137.187 262.33 137.09 259.594C136.992 256.868 135.327 250.627 132.785 250.937C130.323 251.246 130.155 253.247 130.164 253.451C130.164 253.451 128.773 249.228 127.506 247.998C126.683 247.201 123.857 246.094 122.821 246.138C120.314 246.254 118.773 247.812 118.773 247.812C116.214 246.528 113.565 243.642 113.565 243.642C113.565 243.642 115.319 242.137 113.76 240.128C110.368 235.737 100.466 233.887 95.5323 233.161C88.8275 232.169 85.6301 236.091 85.6921 236.135C79.0581 235.737 74.2398 237.472 74.2398 237.472C74.2398 237.472 74.2221 236.595 71.5384 236.277C68.9699 235.976 67.3844 237.206 65.799 239.605L65.7724 239.65C65.7724 239.65 63.7442 238.207 60.9985 240.198C57.7302 242.562 55.6842 249.29 57.3316 257.921C56.2688 258.24 55.6931 258.479 54.4176 259.178C40.7866 254.168 41.2826 264.472 41.2826 264.472C41.2826 264.472 39.1037 264.136 35.3926 265.481C31.7878 266.783 31.8941 267.482 32.204 268.775C32.5229 270.102 35.242 270.076 35.242 270.076C27.5452 274.325 28.7763 273.998 28.7763 273.998C26.0218 276.344 26.1369 278.468 26.3672 279.389C26.4469 279.699 26.5355 279.876 26.5355 279.876C26.5355 279.876 21.921 283.328 22.4258 285.869C22.9307 288.41 26.0838 287.073 26.0838 287.073C25.7295 289.224 26.4469 291.623 27.1024 293.234C27.5629 294.359 27.9881 295.102 27.9881 295.102C27.9881 295.102 24.7995 301.972 26.6506 305.911V305.902Z" fill="#010101"/>
<g style="mix-blend-mode:multiply">
<path d="M26.6507 305.902C28.5018 309.842 30.3973 304.388 30.3973 304.388C32.6381 310.523 37.3147 310.266 37.3147 310.266C37.3147 310.266 33.3112 313.144 34.3564 317.455C35.3927 321.766 43.2932 319.597 43.2932 319.597C43.2932 319.597 43.0186 327.812 47.022 328.016C51.0343 328.22 49.8917 324.891 49.8917 324.891C54.8871 325.741 51.6809 321.217 51.6809 321.217C52.9563 319.34 47.7926 315.33 47.7926 315.33C50.1309 314.48 48.6252 309.815 48.6252 309.815C49.9006 311.825 53.5497 309.567 53.5497 309.567C53.5497 309.567 55.3566 312.382 58.0491 311.4C60.7505 310.408 57.1546 300.175 57.1546 300.175C59.5903 298.67 54.462 288.108 54.462 288.108C54.462 288.108 56.7206 289.065 57.7214 287.799C58.7223 286.533 56.3308 282.531 56.3308 282.531C56.3308 282.531 57.4734 284.019 61.654 282.85C65.7637 281.699 64.5591 275.033 64.4971 274.962C68.4916 275.777 71.8662 272.253 71.8662 272.253C71.8662 272.253 73.8679 275.6 75.4976 275.104C77.1273 274.608 81.299 267.863 81.299 267.863C84.8507 268.527 88.0481 266.685 88.0481 266.685C87.7115 266.977 92.0427 273.254 94.7352 271.926C97.3215 270.651 97.6669 269.394 97.6935 269.306C97.7112 269.429 98.0655 272.147 101.068 276.759C104.141 281.487 107.622 278.636 107.622 278.636C107.622 278.636 107.64 284.346 108.738 286.453C109.837 288.56 111.573 290.162 111.573 290.162C111.573 290.162 112.945 295.146 114.841 294.066C116.736 292.995 116.347 291.163 116.373 290.596C116.4 290.029 117.622 292.119 120.704 292.729C123.787 293.34 122.547 289.666 122.547 289.666C124.088 291.508 126.532 290.454 126.532 290.454C126.532 290.454 126.957 296.527 128.773 298.315C132.909 302.397 134.318 293.978 134.318 293.978C137.205 292.659 135.221 288.923 135.221 288.923C135.221 288.923 136.124 289.737 137.745 287.905C139.357 286.063 138.48 279.459 136.24 277.052C133.999 274.644 133.937 277.494 133.937 277.494C133.937 277.494 138.613 273.785 138.162 271.412C137.71 269.049 134.805 265.101 134.805 265.101C134.805 265.101 137.187 262.33 137.09 259.594C136.992 256.868 135.327 250.627 132.785 250.936C130.323 251.246 130.155 253.247 130.164 253.451C129.65 256.761 112.325 257.195 112.325 257.195C112.325 257.195 115.7 260.258 109.881 260.993C102.583 261.914 96.1524 255.92 96.1524 255.92C96.1524 255.92 89.2881 259.78 83.9473 259.612C68.2791 259.107 58.7666 256.053 56.7648 252.76L57.3317 257.921L54.4177 259.178C54.4177 259.178 58.6071 260.453 59.2094 265.641C59.4751 267.907 51.2823 270.74 50.0777 268.527C50.0777 268.527 50.9014 273.466 45.5429 273.661C45.5429 273.661 49.7943 274.785 48.6695 279.619C47.5535 284.452 28.2627 286.046 26.5267 279.884C26.5267 279.884 21.9122 283.337 22.417 285.878C22.9219 288.418 26.075 287.082 26.075 287.082C25.4727 290.729 27.9793 295.111 27.9793 295.111C27.9793 295.111 24.7907 301.98 26.6418 305.92L26.6507 305.902Z" fill="#010101"/>
</g>
<g style="mix-blend-mode:multiply">
<path d="M26.6504 305.902C28.5015 309.841 30.3969 304.388 30.3969 304.388C32.6378 310.523 37.3143 310.266 37.3143 310.266C37.3143 310.266 33.3109 313.143 34.3561 317.455C35.3923 321.766 43.2929 319.597 43.2929 319.597C43.2929 319.597 43.0183 327.812 47.0217 328.016C51.034 328.219 49.8914 324.891 49.8914 324.891C54.8868 325.741 51.6805 321.217 51.6805 321.217C52.956 319.34 47.7923 315.33 47.7923 315.33C50.1306 314.48 48.6249 309.815 48.6249 309.815C49.9003 311.824 53.5494 309.567 53.5494 309.567C53.5494 309.567 55.3562 312.382 58.0488 311.4C60.7502 310.408 57.1542 300.174 57.1542 300.174C59.5899 298.669 54.4617 288.108 54.4617 288.108C54.4617 288.108 56.7202 289.064 57.7211 287.799C58.7042 286.559 56.4191 282.691 56.3305 282.54C56.4014 282.629 57.5971 283.983 61.6537 282.85C65.7633 281.699 64.5588 275.033 64.4968 274.962C68.4913 275.777 71.8659 272.253 71.8659 272.253C71.8659 272.253 73.8676 275.6 75.4973 275.104C77.127 274.608 81.2987 267.862 81.2987 267.862C84.8504 268.526 88.0478 266.685 88.0478 266.685C87.7112 266.977 92.0424 273.254 94.7349 271.926C97.3212 270.651 97.6666 269.394 97.6932 269.305C97.7109 269.429 98.0652 272.147 101.068 276.759C104.141 281.487 107.622 278.636 107.622 278.636C107.622 278.636 107.64 284.346 108.738 286.453C109.836 288.56 111.572 290.162 111.572 290.162C111.572 290.162 112.945 295.146 114.841 294.066C116.736 292.995 116.346 291.162 116.373 290.596C116.399 290.029 117.622 292.119 120.704 292.729C123.786 293.34 122.546 289.666 122.546 289.666C124.087 291.508 126.532 290.454 126.532 290.454C126.532 290.454 126.957 296.527 128.773 298.315C132.909 302.396 134.317 293.978 134.317 293.978C137.205 292.659 135.221 288.923 135.221 288.923C135.221 288.923 136.124 289.737 137.745 287.905C139.357 286.063 138.48 279.459 136.239 277.051C134.158 274.821 133.954 277.105 133.936 277.45C133.936 277.476 133.936 277.494 133.936 277.494C134.707 281.885 130.526 278.521 130.526 278.521C130.526 278.521 130.562 281.23 127.657 280.424C127.825 280.477 129.96 281.221 127.71 282.266C125.372 283.355 122.803 279.415 122.803 279.415C122.803 279.415 121.944 281.796 119.048 282C119.048 282 122.148 283.284 118.729 284.311C115.31 285.337 116.187 278.432 116.187 278.432C116.187 278.432 114.283 280.451 111.997 278.353C109.703 276.255 109.916 271.465 109.916 271.465C109.916 271.465 109.075 274.803 105.275 274.316C101.475 273.829 98.632 267.172 98.632 267.172C98.632 267.172 97.2857 268.774 95.5675 269.323C93.858 269.863 92.2018 264.392 92.2018 264.392C92.2018 264.392 92.1309 266.437 88.0389 264.977C88.0389 264.977 88.5526 266.358 85.7449 266.535C82.9372 266.712 79.2793 263.418 79.2793 263.418C79.2793 263.418 79.731 268.827 77.5787 269.863C75.4264 270.899 74.6647 263.268 74.6647 263.268C74.6647 263.268 72.3087 267.128 69.7225 266.074C67.1362 265.021 66.3213 262.666 66.3213 262.666C66.3213 262.666 67.6588 266.446 64.6562 266.951C61.7777 267.429 60.3339 265.463 60.2099 265.295C60.3871 265.596 63.6908 271.412 59.4394 273.316C59.9531 273.094 63.9388 271.457 63.1771 274.121C62.3622 276.972 57.7211 274.998 57.7211 274.998C57.7211 274.998 59.5279 277.051 57.5617 278.707C55.7548 280.23 54.6477 279.034 54.4705 278.822C54.7274 279.185 57.1365 282.744 53.1154 284.868C53.3191 284.78 55.9674 283.709 55.3563 285.453C54.7185 287.267 51.3351 287.807 51.3351 287.807C51.3351 287.807 54.2137 289.826 52.9383 291.463C52.4334 292.11 51.6008 292.216 50.7683 292.101C53.2483 293.137 56.4457 295.128 54.9311 298.191C53.1863 301.706 49.856 299.767 48.2263 298.51C49.298 299.564 50.7151 301.467 49.1829 303.105C46.9243 305.521 43.0272 300.148 43.0272 300.148C43.0272 300.148 43.3372 303.14 39.8032 302.857C39.8032 302.857 43.7623 305.513 41.4506 306.982C39.13 308.452 32.2569 307.549 33.8601 304.07C33.8601 304.07 31.0347 302.228 32.6024 299.918C32.6024 299.918 28.1561 300.042 28.0144 295.102C28.0144 295.102 24.8258 301.972 26.677 305.911L26.6504 305.902Z" fill="#010101"/>
</g>
<g style="mix-blend-mode:soft-light" opacity="0.5">
<path d="M84.3549 251.742C84.3549 251.742 81.9014 253.3 84.532 253.787C87.1626 254.274 91.2723 252.043 91.2723 252.043C99.1639 252.415 101.431 250.565 99.9433 247.564C99.9433 247.564 104.514 240.968 96.8877 241.331C94.9568 241.42 96.0374 243.004 96.0728 243.031C92.0694 242.792 92.8045 244.669 92.8045 244.669C92.8045 244.669 87.4726 242.155 85.8429 242.119C69.2181 241.73 75.6749 246.448 75.6749 246.448C59.9093 253.725 84.3726 251.751 84.3726 251.751L84.3549 251.742Z" fill="#010101"/>
</g>
<path d="M109.624 315.719C108.473 315.649 111.077 306.026 117.48 303.06C125.221 299.484 128.684 306.415 128.977 307.92C129.278 309.425 115.151 316.029 109.615 315.711L109.624 315.719Z" fill="url(#paint17_linear_1729_732)"/>
<path d="M118.824 314.051C121.777 313.59 123.789 310.78 123.319 307.775C122.849 304.771 120.074 302.709 117.121 303.171C114.168 303.633 112.156 306.442 112.626 309.447C113.096 312.452 115.871 314.513 118.824 314.051Z" fill="url(#paint18_linear_1729_732)"/>
<path d="M118.775 313.736C121.554 313.302 123.448 310.655 123.005 307.824C122.562 304.994 119.95 303.051 117.171 303.486C114.392 303.92 112.498 306.567 112.941 309.398C113.384 312.228 115.996 314.171 118.775 313.736Z" fill="url(#paint19_linear_1729_732)"/>
<path style="mix-blend-mode:multiply" d="M121.201 307.858C121.608 309.673 120.501 311.47 118.721 311.878C116.94 312.285 115.169 311.143 114.753 309.337C114.336 307.531 115.452 305.725 117.233 305.318C119.013 304.911 120.784 306.053 121.201 307.858Z" fill="url(#paint20_linear_1729_732)"/>
<path d="M109.509 313.914C109.509 313.914 110.12 301.113 117.276 298.351C124.442 295.589 128.321 306.336 128.321 306.336C128.321 306.336 125.257 300.918 118.33 302.892C111.395 304.866 109.509 313.914 109.509 313.914V313.914Z" fill="url(#paint21_linear_1729_732)"/>
<path d="M109.411 314.445L110.944 315.684C110.944 315.684 109.473 316.171 109.225 315.782C108.977 315.392 109.411 314.445 109.411 314.445Z" fill="#D86B7C"/>
<path d="M111.971 315.596C111.971 315.596 117.985 315.162 122.777 313.011C127.569 310.851 128.782 308.381 128.782 308.381C128.782 308.381 121.572 313.241 111.971 315.596V315.596Z" fill="#D86B7C"/>
<path d="M121.457 306.716C121.201 307.079 122.697 306.805 123.707 306.114C124.602 305.495 124.938 304.742 124.814 304.645C124.69 304.556 122.458 305.291 121.457 306.716Z" fill="white"/>
<path d="M120.678 307.195C120.226 307.141 119.783 307.478 119.818 307.708C119.854 307.938 120.438 308.106 120.651 307.956C120.872 307.805 120.926 307.221 120.678 307.195V307.195Z" fill="white"/>
<g style="mix-blend-mode:multiply" opacity="0.6">
<path d="M109.412 314.445C109.412 314.445 112.538 307.319 118.109 304.858C123.68 302.397 127.25 305.106 127.25 305.106C127.25 305.106 125.461 300.963 117.959 303.273C110.457 305.575 109.412 314.445 109.412 314.445V314.445Z" fill="#CC78B1"/>
</g>
<path d="M109.412 314.445C109.412 314.445 111.112 305.601 118.871 303.211C125.797 301.086 128.676 307.035 128.676 307.035C128.676 307.035 128.171 301.369 123.034 301.183C118.154 301.006 110.793 305.3 109.412 314.445V314.445Z" fill="#401432"/>
<path d="M86.0641 319.403C87.1358 318.986 81.7153 310.621 74.7182 309.753C66.2596 308.709 65.0816 316.375 65.2499 317.898C65.4271 319.42 80.8916 321.403 86.0641 319.403Z" fill="url(#paint22_linear_1729_732)"/>
<path d="M76.7865 320.621C79.7393 320.159 81.7515 317.348 81.2807 314.344C80.81 311.34 78.0347 309.279 75.0819 309.741C72.1291 310.203 70.1169 313.013 70.5877 316.018C71.0584 319.022 73.8337 321.083 76.7865 320.621Z" fill="url(#paint23_linear_1729_732)"/>
<path d="M76.7281 320.311C79.507 319.876 81.4007 317.229 80.9577 314.399C80.5147 311.568 77.9028 309.626 75.1239 310.06C72.345 310.494 70.4514 313.141 70.8944 315.972C71.3374 318.803 73.9492 320.745 76.7281 320.311Z" fill="url(#paint24_linear_1729_732)"/>
<path style="mix-blend-mode:multiply" d="M72.6363 315.454C72.7957 317.304 74.4077 318.676 76.2234 318.517C78.0391 318.358 79.3854 316.738 79.2171 314.888C79.0577 313.037 77.4457 311.665 75.63 311.825C73.8143 311.984 72.468 313.604 72.6363 315.454Z" fill="url(#paint25_linear_1729_732)"/>
<path d="M85.6124 317.65C85.6124 317.65 81.1219 305.646 73.4605 305.203C65.7991 304.76 65.3828 316.171 65.3828 316.171C65.3828 316.171 66.6405 310.081 73.8413 309.842C81.0422 309.612 85.6124 317.641 85.6124 317.641V317.65Z" fill="url(#paint26_linear_1729_732)"/>
<path d="M85.8691 318.128L84.7886 319.775C84.7886 319.775 86.3386 319.792 86.4537 319.341C86.5777 318.898 85.8691 318.128 85.8691 318.128V318.128Z" fill="#D86B7C"/>
<path d="M83.7879 320.005C83.7879 320.005 77.9245 321.43 72.7077 320.837C67.4908 320.244 65.5688 318.27 65.5688 318.27C65.5688 318.27 73.9211 320.704 83.779 320.005H83.7879Z" fill="#D86B7C"/>
<path d="M72.0436 314.445C72.3978 314.711 70.8921 314.914 69.723 314.56C68.6778 314.241 68.1287 313.622 68.2173 313.498C68.3059 313.374 70.653 313.392 72.0436 314.445V314.445Z" fill="white"/>
<path d="M72.9292 314.666C73.3455 314.48 73.868 314.666 73.9035 314.896C73.9389 315.127 73.4341 315.463 73.1861 315.383C72.9292 315.304 72.6989 314.772 72.9292 314.666Z" fill="white"/>
<g style="mix-blend-mode:multiply" opacity="0.6">
<path d="M85.8692 318.128C85.8692 318.128 80.7144 312.303 74.6561 311.657C68.5979 311.01 66.0293 314.684 66.0293 314.684C66.0293 314.684 66.4633 310.196 74.3107 310.099C82.1581 310.001 85.8603 318.128 85.8603 318.128H85.8692Z" fill="#CC78B1"/>
</g>
<path d="M85.8694 318.128C85.8694 318.128 81.5471 310.222 73.434 310.32C66.1889 310.408 65.2678 316.95 65.2678 316.95C65.2678 316.95 64.0189 311.4 68.846 309.656C73.4429 307.991 81.7597 309.842 85.8694 318.128V318.128Z" fill="#401432"/>
<path d="M110.545 326.015C110.545 326.015 110.448 326.608 108.313 327.016C106.179 327.432 104.469 329.618 100.829 330.194C97.1888 330.76 95.072 329.176 92.9108 329.423C90.7497 329.68 90.298 329.176 90.298 329.176C89.7577 327.821 89.7489 326.431 89.9614 325.201C89.9614 325.201 89.9614 325.165 89.9614 325.156C90.3511 322.996 91.3963 321.359 91.3963 321.359C96.1171 318.092 101.6 317.233 107.1 318.907C107.1 318.907 108.065 319.703 108.969 321.013V321.031C109.846 322.297 110.669 324.041 110.528 326.015H110.545Z" fill="url(#paint27_linear_1729_732)"/>
<path d="M105.877 328.104C105.877 328.104 107.303 326.431 109.447 326.723L105.877 328.104Z" fill="#812852"/>
<path d="M91.7949 329.495C91.7949 329.495 93.7789 328.546 96.126 329.877L91.7949 329.495Z" fill="#812852"/>
<g style="mix-blend-mode:multiply" opacity="0.6">
<path d="M110.545 326.015C110.545 326.015 110.448 326.608 108.313 327.016C106.179 327.432 104.469 329.618 100.829 330.194C97.1888 330.76 95.072 329.176 92.9108 329.423C90.7497 329.68 90.298 329.176 90.298 329.176C89.7577 327.821 89.7489 326.431 89.9614 325.201C89.9349 325.555 89.8286 327.839 90.7674 328.246C91.786 328.68 97.0117 327.52 100.324 326.998C103.637 326.476 109.27 325.608 109.766 324.634C110.244 323.696 109.084 321.253 108.969 321.031C109.846 322.297 110.669 324.041 110.528 326.015H110.545Z" fill="#CC78B1"/>
</g>
<path style="mix-blend-mode:multiply" opacity="0.6" d="M107.1 318.898C107.1 318.898 106.489 322.731 107.029 325.271C107.029 325.271 105.762 322.917 106.294 318.676L107.1 318.898V318.898Z" fill="url(#paint28_linear_1729_732)"/>
<path style="mix-blend-mode:multiply" opacity="0.6" d="M91.582 321.332C91.582 321.332 93.3358 324.802 93.5926 327.378C93.5926 327.378 94.0797 324.74 92.2817 320.872L91.582 321.332V321.332Z" fill="url(#paint29_linear_1729_732)"/>
<g style="mix-blend-mode:multiply" opacity="0.6">
<path d="M90.7674 328.246C90.7674 328.246 90.3511 328.883 90.2891 329.184C90.2271 329.485 95.7539 333.274 101.166 332.424C106.577 331.574 110.519 326.582 110.536 326.015C110.545 325.448 109.553 324.882 109.553 324.882C109.553 324.882 105.426 326.201 100.324 326.998C95.2137 327.794 90.7674 328.246 90.7674 328.246V328.246Z" fill="#CC78B1"/>
</g>
<path d="M104.451 325.077C103.619 324.758 104.77 323.28 105.142 323.28C105.514 323.28 105.842 324.059 105.727 324.617C105.612 325.174 104.806 325.21 104.451 325.077Z" fill="#FBCBBB"/>
<g style="mix-blend-mode:multiply">
<path d="M106.471 302.99C106.471 302.99 107.906 297.404 110.704 293.464L110.084 296.005C110.084 296.005 110.908 294.881 112.254 293.845C113.61 292.809 124.566 289.906 126.869 289.959L126.355 289.029C126.355 289.029 130.766 291.729 134.433 298.165C134.433 298.165 131.067 295.394 129.136 295.377C127.205 295.359 110.465 300.608 106.657 304.22L106.462 302.999L106.471 302.99Z" fill="#010101"/>
<path d="M85.7628 306.23C85.7628 306.23 82.6893 301.352 78.8188 298.448L80.1828 300.679C80.1828 300.679 79.0579 299.856 77.4548 299.28C75.8517 298.705 64.5234 299.28 62.3534 300.042L62.5572 299.006C62.5572 299.006 59.1826 302.928 57.6592 310.178C57.6592 310.178 60.0152 306.513 61.8486 305.902C63.682 305.291 81.2191 305.185 85.9576 307.46L85.7628 306.239V306.23Z" fill="#010101"/>
</g>
<path style="mix-blend-mode:multiply" opacity="0.6" d="M90.3598 312.356C90.3598 312.356 93.8229 329.008 90.404 334.054C86.9852 339.108 70.3427 340.445 61.4945 336.417C52.6462 332.389 56.5611 310.134 56.5611 310.134C56.5611 310.134 60.4493 303.149 72.991 302.344C85.5326 301.538 90.3598 312.347 90.3598 312.347V312.356Z" fill="url(#paint30_linear_1729_732)"/>
<path style="mix-blend-mode:multiply" opacity="0.6" d="M103.946 310.391C103.946 310.391 105.842 325.316 110.217 328.76C114.601 332.195 129.437 328.724 136.009 322.758C142.581 316.791 132.962 298.537 132.962 298.537C132.962 298.537 127.63 293.553 116.506 296.35C105.381 299.148 103.938 310.399 103.938 310.399L103.946 310.391Z" fill="url(#paint31_linear_1729_732)"/>
<path d="M88.8628 315.427C89.1905 315.038 91.5111 312.4 96.4179 311.32C101.776 310.143 105.665 311.816 106.09 312.002" stroke="url(#paint32_linear_1729_732)" stroke-miterlimit="10"/>
<path d="M55.932 319.562L47.9341 314.294" stroke="url(#paint33_linear_1729_732)" stroke-miterlimit="10"/>
<g style="mix-blend-mode:multiply" opacity="0.4">
<path d="M93.4331 345.579C96.1168 347.341 99.0839 349.421 102.547 349.156C106.01 348.89 109.208 345.101 111.262 342.481C106.648 347.81 99.6065 348.873 93.4331 345.588V345.579Z" fill="#CC78B1"/>
</g>
<path d="M85.8863 337.948C89.4114 343.632 95.7088 348.633 102.706 347.518C109.942 346.358 114.291 340.02 115.744 333.301C110.934 335.39 106.39 338.019 101.847 340.622C96.5857 339.515 91.2271 338.435 85.8774 337.948H85.8863Z" fill="#F26665"/>
<path d="M116.621 332.097C116.089 333.531 115.31 334.877 114.353 336.09C111.36 339.887 106.595 342.499 102.104 343.216C98.269 343.827 94.0087 343.349 90.395 341.685C88.1276 340.64 86.117 339.126 84.6113 337.117C89.1196 338.188 95.169 338.046 99.8987 337.382C100.306 337.32 100.714 337.258 101.103 337.196C102.494 336.993 103.964 336.709 105.461 336.346C109.367 335.408 113.441 333.947 116.63 332.106L116.621 332.097Z" fill="#731C55"/>
<g style="mix-blend-mode:multiply" opacity="0.4">
<path d="M84.6113 337.107C89.1196 338.179 95.169 338.037 99.8987 337.373C94.3896 338.586 89.5979 340.241 90.395 341.675C88.1276 340.631 86.117 339.117 84.6113 337.107Z" fill="#CC78B1"/>
</g>
<g style="mix-blend-mode:multiply" opacity="0.6">
<path d="M116.621 332.097C116.089 333.531 115.31 334.877 114.353 336.09C114.141 335.39 110.137 335.62 105.461 336.338C109.367 335.399 113.441 333.939 116.63 332.097H116.621Z" fill="#CC78B1"/>
</g>
<path d="M94.106 342.994C96.0191 341.95 99.4291 341.065 101.679 341.153C104.318 340.224 109.287 340.595 109.287 340.595C106.904 341.95 104.478 342.986 101.688 343.331C99.3051 343.623 96.5417 343.366 94.1148 342.994H94.106Z" fill="#BE2741"/>
<path d="M85.7095 337.311C90.6606 338.205 96.09 338.117 101.094 337.178C106.107 336.541 111.165 335.009 115.682 332.602C110.244 333.097 99.4114 334.266 85.7095 337.311Z" fill="#D74058"/>
<path d="M88.6499 337.745C92.4053 339.781 96.9667 340.657 101.209 339.985C105.452 339.312 109.562 337.143 112.591 334.106C108.933 335.718 105.053 336.559 101.068 337.187C97.0819 337.816 92.7242 338.134 88.6499 337.745V337.745Z" fill="#FBDBE9"/>
<path d="M114.849 331.336C116.151 331.973 117.338 332.734 118.144 333.929C117.887 332.956 117.4 331.451 116.621 330.902C115.832 330.353 115.381 330.92 114.849 331.336Z" fill="#D86B7C"/>
<path d="M86.3119 335.788C85.2667 336.789 84.3722 337.878 83.9648 339.259C83.9116 338.258 83.9116 336.691 84.4873 335.93C85.063 335.169 85.6742 335.558 86.3119 335.788Z" fill="#D86B7C"/>
<g style="mix-blend-mode:soft-light">
<path d="M107.002 342.499C107.711 342.853 108.233 343.411 108.685 344.057C108.915 343.889 109.154 343.729 109.385 343.561C109.305 342.871 108.517 342.348 108.029 341.977C107.684 342.154 107.347 342.331 107.002 342.499Z" fill="#FBDBE9"/>
</g>
<g style="mix-blend-mode:soft-light">
<path d="M108.446 341.915C109.092 342.171 109.456 342.676 109.695 343.313C109.757 343.225 109.819 343.127 109.881 343.039C109.615 342.428 109.199 342.039 108.543 341.906C108.508 341.906 108.481 341.915 108.446 341.923V341.915Z" fill="#FBDBE9"/>
</g>
<path d="M94.0972 342.985C99.1457 343.711 104.611 342.41 109.269 340.586C105.089 343.729 98.9951 343.977 94.0972 342.985Z" fill="#FBDBE9"/>
<g style="mix-blend-mode:soft-light" opacity="0.5">
<path d="M99.0571 342.18C101.13 342.614 105.842 340.418 101.679 341.162C99.9251 341.472 96.3203 341.613 99.0571 342.18Z" fill="#F7A9B0"/>
</g>
<g style="mix-blend-mode:multiply">
<path d="M42.4001 264.386C42.4001 264.386 40.0636 241.321 24.522 242.873C8.98043 244.424 9.66552 273.933 9.66552 273.933L12.1539 271.686C12.1539 271.686 9.08229 255.827 17.4649 252.755C25.8489 249.694 33.5887 254.242 33.5887 254.242C33.5887 254.242 10.6885 248.287 4.37034 262.039C-1.95715 275.793 7.61687 299.652 22.5762 294.939C37.534 290.216 42.4094 264.384 42.4094 264.384L42.4001 264.386Z" fill="#010101"/>
</g>
<path style="mix-blend-mode:multiply" d="M2.77258 276.736C2.77258 276.736 18.5775 254.553 38.9226 266.215L40.3869 265.409C40.3869 265.409 20.9521 252 2.40076 271.175L2.77401 276.745L2.77258 276.736Z" fill="url(#paint34_linear_1729_732)"/>
<path d="M3.79151 263.411C3.79151 263.411 23.2132 248.59 40.505 260.19L38.6134 257.174C38.6134 257.174 30.1064 248.448 4.36019 262.04L3.79151 263.411Z" fill="#010101"/>
<path style="mix-blend-mode:multiply" d="M12.1868 293.509C12.1868 293.509 8.52405 267.579 36.5489 267.656L35.652 268.318C35.652 268.318 9.56576 269.833 14.4319 294.684L12.1961 293.508L12.1868 293.509Z" fill="url(#paint35_linear_1729_732)"/>
<path d="M44.4757 262.802C44.4757 262.802 31.2758 270.476 28.0036 291.896C28.0036 291.896 18.1585 271.464 44.4757 262.802Z" fill="#F78E1E"/>
<path fill-rule="evenodd" clip-rule="evenodd" d="M232.796 786.355C233.217 788.359 231.933 790.325 229.929 790.746C216.37 793.593 205.604 796.992 198.319 800.677C194.671 802.522 192.082 804.346 190.452 806.056C188.836 807.75 188.375 809.091 188.375 810.105C188.375 811.08 188.8 812.352 190.266 813.954C191.75 815.576 194.116 817.32 197.474 819.096C204.184 822.644 214.137 825.953 226.75 828.774C251.914 834.403 286.859 837.917 325.583 837.917C364.308 837.917 399.253 834.403 424.417 828.774C437.029 825.953 446.982 822.644 453.692 819.096C457.051 817.32 459.417 815.576 460.901 813.954C462.366 812.352 462.792 811.08 462.792 810.105C462.792 809.091 462.33 807.75 460.715 806.056C459.084 804.346 456.496 802.522 452.848 800.677C445.563 796.992 434.797 793.593 421.238 790.746C419.234 790.325 417.95 788.359 418.371 786.355C418.791 784.351 420.757 783.067 422.762 783.488C436.594 786.391 448.077 789.953 456.195 794.058C460.248 796.108 463.649 798.386 466.082 800.938C468.531 803.505 470.208 806.585 470.208 810.105C470.208 813.481 468.662 816.458 466.373 818.96C464.103 821.442 460.932 823.657 457.16 825.652C449.608 829.646 438.925 833.129 426.036 836.012C400.198 841.792 364.685 845.334 325.583 845.334C286.482 845.334 250.968 841.792 225.131 836.012C212.242 833.129 201.558 829.646 194.007 825.652C190.235 823.657 187.063 821.442 184.793 818.96C182.505 816.458 180.958 813.481 180.958 810.105C180.958 806.585 182.635 803.505 185.084 800.938C187.518 798.386 190.918 796.108 194.972 794.058C203.089 789.953 214.573 786.391 228.405 783.488C230.409 783.067 232.375 784.351 232.796 786.355Z" fill="#AC7349"/>
<path fill-rule="evenodd" clip-rule="evenodd" d="M210.625 633.958C212.673 633.958 214.333 635.619 214.333 637.667V730.408C214.333 756.292 223.285 781.349 245.715 793.248C264.054 802.976 290.475 811.959 325.583 811.959C360.691 811.959 387.113 802.976 405.451 793.248C427.881 781.349 436.833 756.292 436.833 730.408V637.667C436.833 635.619 438.493 633.958 440.541 633.958C442.59 633.958 444.25 635.619 444.25 637.667V730.408C444.25 757.628 434.814 786.067 408.927 799.799C389.619 810.041 362.013 819.375 325.583 819.375C289.154 819.375 261.547 810.042 242.24 799.799C216.352 786.067 206.917 757.628 206.917 730.408V637.667C206.917 635.619 208.577 633.958 210.625 633.958Z" fill="#2065CC"/>
<path fill-rule="evenodd" clip-rule="evenodd" d="M221.75 655.315V731.974C221.75 751.889 228.34 771.757 245.143 782.448C262.173 793.283 288.735 804.542 325.583 804.542C362.432 804.542 388.994 793.283 406.024 782.448C422.827 771.757 429.417 751.889 429.417 731.974V655.315C413.345 660.177 372.916 663.625 325.583 663.625C278.25 663.625 237.821 660.177 221.75 655.315Z" fill="#FFE7CB"/>
<path d="M406.024 782.448C422.826 771.757 429.417 751.889 429.417 731.974V655.315C420.752 657.936 405.007 660.147 384.917 661.627V793.353C393.112 789.989 400.137 786.193 406.024 782.448Z" fill="#F3D4AF"/>
<path d="M245.143 782.448C228.34 771.757 221.75 751.889 221.75 731.974V655.315C228.743 657.431 240.347 659.278 255.125 660.691V788.197C251.494 786.311 248.168 784.372 245.143 782.448Z" fill="#FFF3E4"/>
<path d="M221.75 696.107V731.973C221.75 751.888 228.34 771.757 245.143 782.447C262.173 793.283 288.735 804.542 325.583 804.542C362.432 804.542 388.994 793.283 406.024 782.447C422.827 771.757 429.417 751.888 429.417 731.973V696.107C413.345 700.968 372.916 704.417 325.583 704.417C278.25 704.417 237.821 700.968 221.75 696.107Z" fill="#75370A"/>
<path d="M406.024 782.447C422.826 771.757 429.417 751.888 429.417 731.973V696.107C420.752 698.728 405.007 700.938 384.917 702.419V793.353C393.112 789.989 400.137 786.193 406.024 782.447Z" fill="#572908"/>
<path d="M245.143 782.447C228.34 771.757 221.75 751.888 221.75 731.973V696.107C228.743 698.222 240.347 700.07 255.125 701.482V788.196C251.494 786.31 248.168 784.372 245.143 782.447Z" fill="#8E4917"/>
<path fill-rule="evenodd" clip-rule="evenodd" d="M405.108 652.357C384.611 654.749 356.498 656.209 325.583 656.209C294.668 656.209 266.555 654.749 246.058 652.357C235.859 651.167 227.276 649.717 221.104 648.015C218.075 647.179 215.197 646.17 212.92 644.872C211.783 644.224 210.443 643.307 209.313 642.009C208.142 640.663 206.917 638.559 206.917 635.813C206.917 633.066 208.142 630.962 209.313 629.616C210.443 628.318 211.783 627.402 212.92 626.754C215.197 625.456 218.075 624.446 221.104 623.611C227.276 621.909 235.859 620.458 246.058 619.268C266.555 616.877 294.668 615.417 325.583 615.417C356.498 615.417 384.611 616.877 405.108 619.268C415.307 620.458 423.891 621.909 430.063 623.611C433.091 624.446 435.97 625.456 438.246 626.754C439.383 627.402 440.723 628.318 441.853 629.616C443.025 630.962 444.25 633.066 444.25 635.813C444.25 638.559 443.025 640.663 441.853 642.009C440.723 643.307 439.383 644.224 438.246 644.872C435.97 646.17 433.091 647.179 430.063 648.015C423.891 649.717 415.307 651.167 405.108 652.357ZM325.583 648.792C387.025 648.792 436.833 642.981 436.833 635.813C436.833 628.645 387.025 622.834 325.583 622.834C264.141 622.834 214.333 628.645 214.333 635.813C214.333 642.981 264.141 648.792 325.583 648.792Z" fill="#2065CC"/>
<path fill-rule="evenodd" clip-rule="evenodd" d="M236.583 667.333C238.631 667.333 240.292 668.994 240.292 671.042V693.292C240.292 695.34 238.631 697 236.583 697C234.535 697 232.875 695.34 232.875 693.292V671.042C232.875 668.994 234.535 667.333 236.583 667.333Z" fill="white"/>
<path d="M214.333 611.416C214.333 594.438 228.222 580.676 245.355 580.676C248.306 580.676 251.161 581.084 253.865 581.847C259.315 566.826 273.818 556.083 290.853 556.083C307.044 556.083 320.947 565.786 326.964 579.644C331.052 577.679 335.64 576.577 340.488 576.577C354.038 576.577 365.559 585.186 369.785 597.185C375.491 597.73 380.632 600.19 384.546 603.909C389.31 599.658 395.616 597.07 402.531 597.07C417.38 597.07 429.417 608.998 429.417 623.712C429.417 627.343 428.684 630.804 427.356 633.958C427.356 633.958 417.62 645.083 325.81 645.083C234 645.083 224.264 633.958 224.264 633.958C218.156 628.344 214.333 620.322 214.333 611.416Z" fill="white"/>
<path d="M284.792 578.334C284.792 582.43 281.471 585.75 277.375 585.75C273.279 585.75 269.958 582.43 269.958 578.334C269.958 574.238 273.279 570.917 277.375 570.917C281.471 570.917 284.792 574.238 284.792 578.334Z" fill="#F9F9F9"/>
<path d="M262.542 596.875C262.542 600.971 259.221 604.292 255.125 604.292C251.029 604.292 247.708 600.971 247.708 596.875C247.708 592.779 251.029 589.458 255.125 589.458C259.221 589.458 262.542 592.779 262.542 596.875Z" fill="#F9F9F9"/>
<path d="M288.5 628.396C288.5 631.468 286.01 633.958 282.937 633.958C279.865 633.958 277.375 631.468 277.375 628.396C277.375 625.324 279.865 622.833 282.937 622.833C286.01 622.833 288.5 625.324 288.5 628.396Z" fill="#F9F9F9"/>
<path d="M318.167 595.021C318.167 598.093 315.676 600.583 312.604 600.583C309.532 600.583 307.042 598.093 307.042 595.021C307.042 591.949 309.532 589.458 312.604 589.458C315.676 589.458 318.167 591.949 318.167 595.021Z" fill="#F9F9F9"/>
<path d="M362.667 628.396C362.667 631.468 360.176 633.958 357.104 633.958C354.032 633.958 351.542 631.468 351.542 628.396C351.542 625.324 354.032 622.833 357.104 622.833C360.176 622.833 362.667 625.324 362.667 628.396Z" fill="#F9F9F9"/>
<path d="M344.125 630.25C344.125 634.346 340.804 637.667 336.708 637.667C332.612 637.667 329.292 634.346 329.292 630.25C329.292 626.154 332.612 622.833 336.708 622.833C340.804 622.833 344.125 626.154 344.125 630.25Z" fill="#F9F9F9"/>
<path d="M381.208 619.125C381.208 623.221 377.888 626.542 373.792 626.542C369.696 626.542 366.375 623.221 366.375 619.125C366.375 615.029 369.696 611.708 373.792 611.708C377.888 611.708 381.208 615.029 381.208 619.125Z" fill="#F9F9F9"/>
<path d="M240.292 608C240.292 612.096 236.971 615.417 232.875 615.417C228.779 615.417 225.458 612.096 225.458 608C225.458 603.904 228.779 600.583 232.875 600.583C236.971 600.583 240.292 603.904 240.292 608Z" fill="#F9F9F9"/>
<path d="M310.75 578.334C310.75 582.43 307.429 585.75 303.333 585.75C299.237 585.75 295.917 582.43 295.917 578.334C295.917 574.238 299.237 570.917 303.333 570.917C307.429 570.917 310.75 574.238 310.75 578.334Z" fill="#F9F9F9"/>
<path d="M318.167 624.688C318.167 629.808 314.016 633.959 308.896 633.959C303.776 633.959 299.625 629.808 299.625 624.688C299.625 619.568 303.776 615.417 308.896 615.417C314.016 615.417 318.167 619.568 318.167 624.688Z" fill="#F9F9F9"/>
<path d="M299.625 604.292C299.625 610.436 294.644 615.417 288.5 615.417C282.356 615.417 277.375 610.436 277.375 604.292C277.375 598.148 282.356 593.167 288.5 593.167C294.644 593.167 299.625 598.148 299.625 604.292Z" fill="#F9F9F9"/>
<path d="M266.25 622.833C266.25 628.978 261.269 633.958 255.125 633.958C248.981 633.958 244 628.978 244 622.833C244 616.689 248.981 611.708 255.125 611.708C261.269 611.708 266.25 616.689 266.25 622.833Z" fill="#F9F9F9"/>
<path d="M355.25 602.438C355.25 609.606 349.439 615.417 342.271 615.417C335.102 615.417 329.292 609.606 329.292 602.438C329.292 595.269 335.102 589.458 342.271 589.458C349.439 589.458 355.25 595.269 355.25 602.438Z" fill="#F9F9F9"/>
<path d="M414.583 619.125C414.583 625.27 409.602 630.25 403.458 630.25C397.314 630.25 392.333 625.27 392.333 619.125C392.333 612.981 397.314 608 403.458 608C409.602 608 414.583 612.981 414.583 619.125Z" fill="#F9F9F9"/>
<path d="M388.625 761.391C388.625 764.37 386.21 766.784 383.231 766.784C380.252 766.784 377.837 764.37 377.837 761.391C377.837 758.412 380.252 755.997 383.231 755.997C386.21 755.997 388.625 758.412 388.625 761.391Z" fill="#572908"/>
<path d="M372.443 750.602C372.443 753.581 370.028 755.996 367.049 755.996C364.07 755.996 361.655 753.581 361.655 750.602C361.655 747.623 364.07 745.208 367.049 745.208C370.028 745.208 372.443 747.623 372.443 750.602Z" fill="#572908"/>
<path d="M362.33 735.769C362.33 738.748 359.915 741.163 356.936 741.163C353.957 741.163 351.542 738.748 351.542 735.769C351.542 732.79 353.957 730.375 356.936 730.375C359.915 730.375 362.33 732.79 362.33 735.769Z" fill="#572908"/>
<path d="M348.171 753.637C348.171 755.871 346.36 757.682 344.125 757.682C341.891 757.682 340.08 755.871 340.08 753.637C340.08 751.403 341.891 749.591 344.125 749.591C346.36 749.591 348.171 751.403 348.171 753.637Z" fill="#572908"/>
<path d="M341.091 738.129C341.091 740.363 339.28 742.174 337.045 742.174C334.811 742.174 333 740.363 333 738.129C333 735.895 334.811 734.083 337.045 734.083C339.28 734.083 341.091 735.895 341.091 738.129Z" fill="#572908"/>
<path d="M329.966 760.379C329.966 762.613 328.155 764.424 325.92 764.424C323.686 764.424 321.875 762.613 321.875 760.379C321.875 758.145 323.686 756.333 325.92 756.333C328.155 756.333 329.966 758.145 329.966 760.379Z" fill="#572908"/>
<path d="M329.966 786.337C329.966 788.572 328.155 790.383 325.92 790.383C323.686 790.383 321.875 788.572 321.875 786.337C321.875 784.103 323.686 782.292 325.92 782.292C328.155 782.292 329.966 784.103 329.966 786.337Z" fill="#572908"/>
<path d="M350.867 788.36C350.867 791.339 348.453 793.754 345.474 793.754C342.495 793.754 340.08 791.339 340.08 788.36C340.08 785.381 342.495 782.966 345.474 782.966C348.453 782.966 350.867 785.381 350.867 788.36Z" fill="#572908"/>
<path d="M341.091 769.818C341.091 772.053 339.28 773.864 337.045 773.864C334.811 773.864 333 772.053 333 769.818C333 767.584 334.811 765.773 337.045 765.773C339.28 765.773 341.091 767.584 341.091 769.818Z" fill="#572908"/>
<path d="M367.049 770.83C367.049 774.554 364.03 777.572 360.307 777.572C356.583 777.572 353.564 774.554 353.564 770.83C353.564 767.106 356.583 764.087 360.307 764.087C364.03 764.087 367.049 767.106 367.049 770.83Z" fill="#572908"/>
<path d="M390.985 733.409C390.985 737.133 387.966 740.152 384.242 740.152C380.519 740.152 377.5 737.133 377.5 733.409C377.5 729.686 380.519 726.667 384.242 726.667C387.966 726.667 390.985 729.686 390.985 733.409Z" fill="#572908"/>
<path d="M383.231 780.269C383.231 783.248 380.816 785.663 377.837 785.663C374.858 785.663 372.443 783.248 372.443 780.269C372.443 777.29 374.858 774.875 377.837 774.875C380.816 774.875 383.231 777.29 383.231 780.269Z" fill="#572908"/>
<path d="M273.89 541.073C271.541 540.209 270.337 537.603 271.202 535.254C272.066 532.904 274.672 531.701 277.021 532.565C279.37 533.43 280.574 536.035 279.709 538.385C278.845 540.734 276.239 541.938 273.89 541.073Z" fill="#5A94FF"/>
<path d="M257.274 556.694C255.512 556.045 254.609 554.091 255.257 552.329C255.906 550.567 257.86 549.664 259.622 550.313C261.384 550.961 262.287 552.915 261.638 554.677C260.99 556.439 259.036 557.342 257.274 556.694Z" fill="#5A94FF"/>
<path d="M228.738 575.172C226.976 574.524 226.073 572.57 226.722 570.807C227.37 569.045 229.324 568.143 231.086 568.791C232.848 569.44 233.751 571.394 233.103 573.156C232.454 574.918 230.5 575.821 228.738 575.172Z" fill="#5A94FF"/>
<path d="M268.411 555.962C266.062 555.097 264.858 552.492 265.723 550.142C266.587 547.793 269.193 546.589 271.542 547.454C273.891 548.319 275.095 550.924 274.23 553.273C273.366 555.623 270.76 556.826 268.411 555.962Z" fill="#5A94FF"/>
<path d="M245.193 576.398C241.081 574.884 238.975 570.325 240.488 566.214C242.001 562.102 246.56 559.996 250.672 561.509C254.783 563.022 256.89 567.581 255.377 571.693C253.863 575.804 249.304 577.911 245.193 576.398Z" fill="#5A94FF"/>
<path d="M291.024 542.856C291.547 544.81 290.388 546.818 288.434 547.342C286.48 547.865 284.472 546.706 283.948 544.752C283.424 542.798 284.584 540.789 286.538 540.266C288.492 539.742 290.5 540.902 291.024 542.856Z" fill="#5A94FF"/>
<path d="M309.018 550.393C309.41 551.859 308.541 553.365 307.075 553.757C305.61 554.15 304.104 553.28 303.711 551.815C303.318 550.35 304.188 548.843 305.653 548.451C307.119 548.058 308.625 548.928 309.018 550.393Z" fill="#5A94FF"/>
<path d="M334.511 560.626C334.904 562.091 334.034 563.598 332.569 563.99C331.103 564.383 329.597 563.513 329.204 562.048C328.811 560.583 329.681 559.076 331.147 558.684C332.612 558.291 334.118 559.161 334.511 560.626Z" fill="#5A94FF"/>
<path d="M303.407 539.538C303.93 541.492 302.771 543.5 300.817 544.024C298.863 544.547 296.854 543.388 296.331 541.434C295.807 539.48 296.967 537.472 298.921 536.948C300.875 536.424 302.883 537.584 303.407 539.538Z" fill="#5A94FF"/>
<path d="M327.655 549.191C328.572 552.611 326.542 556.125 323.123 557.042C319.704 557.958 316.189 555.929 315.273 552.509C314.357 549.09 316.386 545.575 319.805 544.659C323.224 543.743 326.739 545.772 327.655 549.191Z" fill="#5A94FF"/>
<path d="M374.395 580.191C374.578 581.866 373.369 583.372 371.694 583.554C370.02 583.737 368.514 582.528 368.331 580.853C368.148 579.179 369.358 577.673 371.032 577.49C372.707 577.307 374.213 578.517 374.395 580.191Z" fill="#5A94FF"/>
<path d="M388.785 585.524C388.922 586.779 388.015 587.909 386.759 588.046C385.503 588.183 384.374 587.276 384.237 586.02C384.099 584.764 385.006 583.635 386.262 583.498C387.518 583.361 388.648 584.268 388.785 585.524Z" fill="#5A94FF"/>
<path d="M418.246 568.608C419.34 569.24 419.715 570.639 419.084 571.733C418.452 572.827 417.053 573.202 415.959 572.571C414.865 571.939 414.49 570.54 415.121 569.446C415.753 568.351 417.152 567.977 418.246 568.608Z" fill="#5A94FF"/>
<path d="M385.008 579.032C385.191 580.707 383.981 582.212 382.307 582.395C380.632 582.578 379.126 581.369 378.943 579.694C378.761 578.02 379.97 576.514 381.644 576.331C383.319 576.148 384.825 577.357 385.008 579.032Z" fill="#5A94FF"/>
<path d="M404.277 586.9C404.597 589.83 402.481 592.465 399.55 592.785C396.62 593.105 393.984 590.989 393.664 588.059C393.344 585.128 395.461 582.493 398.391 582.173C401.322 581.853 403.957 583.969 404.277 586.9Z" fill="#5A94FF"/>
<path d="M363.806 571.076C363.454 569.761 364.234 568.41 365.549 568.057C366.863 567.705 368.215 568.485 368.567 569.8C368.919 571.115 368.139 572.466 366.824 572.819C365.51 573.171 364.158 572.391 363.806 571.076Z" fill="#5A94FF"/>
<path d="M351.658 568.59C351.393 567.604 351.979 566.59 352.965 566.326C353.951 566.062 354.964 566.647 355.229 567.633C355.493 568.619 354.908 569.633 353.922 569.897C352.935 570.161 351.922 569.576 351.658 568.59Z" fill="#5A94FF"/>
<path d="M326.419 570.585C326.155 569.599 326.74 568.586 327.726 568.322C328.712 568.057 329.726 568.642 329.99 569.629C330.254 570.615 329.669 571.628 328.683 571.892C327.697 572.157 326.683 571.572 326.419 570.585Z" fill="#5A94FF"/>
<path d="M355.473 573.309C355.121 571.994 355.901 570.642 357.216 570.29C358.531 569.938 359.882 570.718 360.235 572.033C360.587 573.348 359.807 574.699 358.492 575.051C357.177 575.404 355.826 574.624 355.473 573.309Z" fill="#5A94FF"/>
<path d="M339.116 569.399C338.5 567.098 339.865 564.733 342.166 564.116C344.467 563.5 346.832 564.865 347.449 567.166C348.065 569.467 346.7 571.832 344.399 572.448C342.098 573.065 339.733 571.699 339.116 569.399Z" fill="#5A94FF"/>
<g filter="url(#filter0_f_1729_732)">
<path d="M190.971 699.033L489.765 688.622L524.863 892.665L198.115 904.05L190.971 699.033Z" fill="url(#paint36_linear_1729_732)"/>
</g>
<g filter="url(#filter1_f_1729_732)">
<path d="M-129 664H303.533L344 898H-129V664Z" fill="url(#paint37_linear_1729_732)"/>
</g>
<g filter="url(#filter2_f_1729_732)">
<path d="M170 785H496.457L527 849H170V785Z" fill="#0BA1FF"/>
</g>
</g>
<defs>
<filter id="filter0_f_1729_732" x="140.971" y="638.622" width="433.892" height="315.428" filterUnits="userSpaceOnUse" color-interpolation-filters="sRGB">
<feFlood flood-opacity="0" result="BackgroundImageFix"/>
<feBlend mode="normal" in="SourceGraphic" in2="BackgroundImageFix" result="shape"/>
<feGaussianBlur stdDeviation="25" result="effect1_foregroundBlur_1729_732"/>
</filter>
<filter id="filter1_f_1729_732" x="-159" y="634" width="533" height="294" filterUnits="userSpaceOnUse" color-interpolation-filters="sRGB">
<feFlood flood-opacity="0" result="BackgroundImageFix"/>
<feBlend mode="normal" in="SourceGraphic" in2="BackgroundImageFix" result="shape"/>
<feGaussianBlur stdDeviation="15" result="effect1_foregroundBlur_1729_732"/>
</filter>
<filter id="filter2_f_1729_732" x="140" y="755" width="417" height="124" filterUnits="userSpaceOnUse" color-interpolation-filters="sRGB">
<feFlood flood-opacity="0" result="BackgroundImageFix"/>
<feBlend mode="normal" in="SourceGraphic" in2="BackgroundImageFix" result="shape"/>
<feGaussianBlur stdDeviation="15" result="effect1_foregroundBlur_1729_732"/>
</filter>
<linearGradient id="paint0_linear_1729_732" x1="207" y1="0" x2="207" y2="896" gradientUnits="userSpaceOnUse">
<stop stop-color="#3ABDFF"/>
<stop offset="1" stop-color="#0C4FFA"/>
</linearGradient>
<linearGradient id="paint1_linear_1729_732" x1="95.0096" y1="362.686" x2="86.5659" y2="308.677" gradientUnits="userSpaceOnUse">
<stop stop-color="#31111B"/>
<stop offset="1" stop-color="#1A0F21"/>
</linearGradient>
<linearGradient id="paint2_linear_1729_732" x1="144.077" y1="332.933" x2="139.443" y2="303.291" gradientUnits="userSpaceOnUse">
<stop stop-color="#F7A393"/>
<stop offset="0.43" stop-color="#F5A794"/>
<stop offset="0.51" stop-color="#F5A18E"/>
<stop offset="0.76" stop-color="#F59584"/>
<stop offset="1" stop-color="#F69181"/>
</linearGradient>
<linearGradient id="paint3_linear_1729_732" x1="142.877" y1="325.218" x2="139.687" y2="304.812" gradientUnits="userSpaceOnUse">
<stop stop-color="#F7A393"/>
<stop offset="0.43" stop-color="#F5A794"/>
<stop offset="0.51" stop-color="#F5A18E"/>
<stop offset="0.76" stop-color="#F59584"/>
<stop offset="1" stop-color="#F69181"/>
</linearGradient>
<linearGradient id="paint4_linear_1729_732" x1="139.191" y1="318.115" x2="137.805" y2="309.255" gradientUnits="userSpaceOnUse">
<stop stop-color="#F7A393"/>
<stop offset="0.43" stop-color="#F5A794"/>
<stop offset="0.51" stop-color="#F5A18E"/>
<stop offset="0.76" stop-color="#F59584"/>
<stop offset="1" stop-color="#F69181"/>
</linearGradient>
<linearGradient id="paint5_linear_1729_732" x1="132.434" y1="319.928" x2="142.129" y2="318.411" gradientUnits="userSpaceOnUse">
<stop stop-color="#F7A393"/>
<stop offset="0.43" stop-color="#F5A794"/>
<stop offset="0.51" stop-color="#F5A18E"/>
<stop offset="0.76" stop-color="#F59584"/>
<stop offset="1" stop-color="#F69181"/>
</linearGradient>
<linearGradient id="paint6_linear_1729_732" x1="-79.4176" y1="690.356" x2="55.1036" y2="669.304" gradientUnits="userSpaceOnUse">
<stop stop-color="#F7A393"/>
<stop offset="0.43" stop-color="#F5A794"/>
<stop offset="0.51" stop-color="#F5A18E"/>
<stop offset="0.76" stop-color="#F59584"/>
<stop offset="1" stop-color="#F69181"/>
</linearGradient>
<linearGradient id="paint7_linear_1729_732" x1="144.215" y1="376.131" x2="243.367" y2="360.614" gradientUnits="userSpaceOnUse">
<stop stop-color="#F7A393"/>
<stop offset="0.43" stop-color="#F5A794"/>
<stop offset="0.51" stop-color="#F5A18E"/>
<stop offset="0.76" stop-color="#F59584"/>
<stop offset="1" stop-color="#F69181"/>
</linearGradient>
<linearGradient id="paint8_linear_1729_732" x1="204.196" y1="331.495" x2="241.456" y2="325.664" gradientUnits="userSpaceOnUse">
<stop stop-color="#F7A393"/>
<stop offset="0.43" stop-color="#F5A794"/>
<stop offset="0.51" stop-color="#F5A18E"/>
<stop offset="0.76" stop-color="#F59584"/>
<stop offset="1" stop-color="#F69181"/>
</linearGradient>
<linearGradient id="paint9_linear_1729_732" x1="169.767" y1="790.403" x2="226.727" y2="800.832" gradientUnits="userSpaceOnUse">
<stop stop-color="#F7A393"/>
<stop offset="0.43" stop-color="#F5A794"/>
<stop offset="0.51" stop-color="#F5A18E"/>
<stop offset="0.76" stop-color="#F59584"/>
<stop offset="1" stop-color="#F69181"/>
</linearGradient>
<linearGradient id="paint10_linear_1729_732" x1="58.9479" y1="381.038" x2="140.187" y2="368.325" gradientUnits="userSpaceOnUse">
<stop stop-color="#F9AD99"/>
<stop offset="0.18" stop-color="#F79B8D"/>
<stop offset="0.46" stop-color="#F48781"/>
<stop offset="0.73" stop-color="#F37B79"/>
<stop offset="1" stop-color="#F37777"/>
</linearGradient>
<linearGradient id="paint11_linear_1729_732" x1="43.427" y1="316.174" x2="132.428" y2="302.245" gradientUnits="userSpaceOnUse">
<stop stop-color="#F7A393"/>
<stop offset="0.43" stop-color="#F5A794"/>
<stop offset="0.51" stop-color="#F5A18E"/>
<stop offset="0.76" stop-color="#F59584"/>
<stop offset="1" stop-color="#F69181"/>
</linearGradient>
<linearGradient id="paint12_linear_1729_732" x1="-116.832" y1="511.544" x2="66.6744" y2="482.826" gradientUnits="userSpaceOnUse">
<stop stop-color="#F7A393"/>
<stop offset="0.43" stop-color="#F5A794"/>
<stop offset="0.51" stop-color="#F5A18E"/>
<stop offset="0.76" stop-color="#F59584"/>
<stop offset="1" stop-color="#F69181"/>
</linearGradient>
<linearGradient id="paint13_linear_1729_732" x1="49.5651" y1="355.427" x2="43.6114" y2="317.345" gradientUnits="userSpaceOnUse">
<stop stop-color="#F7A393"/>
<stop offset="0.43" stop-color="#F5A794"/>
<stop offset="0.51" stop-color="#F5A18E"/>
<stop offset="0.76" stop-color="#F59584"/>
<stop offset="1" stop-color="#F69181"/>
</linearGradient>
<linearGradient id="paint14_linear_1729_732" x1="48.0054" y1="345.519" x2="43.9073" y2="319.306" gradientUnits="userSpaceOnUse">
<stop stop-color="#F7A393"/>
<stop offset="0.43" stop-color="#F5A794"/>
<stop offset="0.51" stop-color="#F5A18E"/>
<stop offset="0.76" stop-color="#F59584"/>
<stop offset="1" stop-color="#F69181"/>
</linearGradient>
<linearGradient id="paint15_linear_1729_732" x1="50.6988" y1="335.232" x2="48.9184" y2="323.845" gradientUnits="userSpaceOnUse">
<stop stop-color="#F7A393"/>
<stop offset="0.43" stop-color="#F5A794"/>
<stop offset="0.51" stop-color="#F5A18E"/>
<stop offset="0.76" stop-color="#F59584"/>
<stop offset="1" stop-color="#F69181"/>
</linearGradient>
<linearGradient id="paint16_linear_1729_732" x1="39.2761" y1="337.771" x2="55.4207" y2="335.245" gradientUnits="userSpaceOnUse">
<stop stop-color="#F7A393"/>
<stop offset="0.43" stop-color="#F5A794"/>
<stop offset="0.51" stop-color="#F5A18E"/>
<stop offset="0.76" stop-color="#F59584"/>
<stop offset="1" stop-color="#F69181"/>
</linearGradient>
<linearGradient id="paint17_linear_1729_732" x1="119.559" y1="314.49" x2="117.889" y2="302.486" gradientUnits="userSpaceOnUse">
<stop stop-color="#E8DCED"/>
<stop offset="1" stop-color="#BBC3E3"/>
</linearGradient>
<linearGradient id="paint18_linear_1729_732" x1="119.191" y1="313.942" x2="116.752" y2="303.202" gradientUnits="userSpaceOnUse">
<stop stop-color="#48204B"/>
<stop offset="1" stop-color="#301138"/>
</linearGradient>
<linearGradient id="paint19_linear_1729_732" x1="119.121" y1="313.631" x2="116.825" y2="303.521" gradientUnits="userSpaceOnUse">
<stop stop-color="#57345B"/>
<stop offset="1" stop-color="#301138"/>
</linearGradient>
<linearGradient id="paint20_linear_1729_732" x1="118.717" y1="311.853" x2="117.227" y2="305.292" gradientUnits="userSpaceOnUse">
<stop stop-color="#A295B8"/>
<stop offset="0.99" stop-color="#734B61"/>
</linearGradient>
<linearGradient id="paint21_linear_1729_732" x1="108.009" y1="307.303" x2="127.528" y2="302.867" gradientUnits="userSpaceOnUse">
<stop stop-color="#F7A393"/>
<stop offset="0.43" stop-color="#F5A794"/>
<stop offset="0.51" stop-color="#F5A18E"/>
<stop offset="0.76" stop-color="#F59584"/>
<stop offset="1" stop-color="#F69181"/>
</linearGradient>
<linearGradient id="paint22_linear_1729_732" x1="76.2325" y1="321.288" x2="74.1561" y2="309.347" gradientUnits="userSpaceOnUse">
<stop stop-color="#E8DCED"/>
<stop offset="1" stop-color="#BBC3E3"/>
</linearGradient>
<linearGradient id="paint23_linear_1729_732" x1="76.4336" y1="320.673" x2="75.4762" y2="309.702" gradientUnits="userSpaceOnUse">
<stop stop-color="#48204B"/>
<stop offset="1" stop-color="#301138"/>
</linearGradient>
<linearGradient id="paint24_linear_1729_732" x1="76.3637" y1="320.32" x2="75.4643" y2="309.993" gradientUnits="userSpaceOnUse">
<stop stop-color="#57345B"/>
<stop offset="1" stop-color="#301138"/>
</linearGradient>
<linearGradient id="paint25_linear_1729_732" x1="76.233" y1="318.52" x2="75.6481" y2="311.817" gradientUnits="userSpaceOnUse">
<stop stop-color="#A295B8"/>
<stop offset="0.99" stop-color="#734B61"/>
</linearGradient>
<linearGradient id="paint26_linear_1729_732" x1="85.0382" y1="310.918" x2="65.0883" y2="312.661" gradientUnits="userSpaceOnUse">
<stop stop-color="#F7A393"/>
<stop offset="0.43" stop-color="#F5A794"/>
<stop offset="0.51" stop-color="#F5A18E"/>
<stop offset="0.76" stop-color="#F59584"/>
<stop offset="1" stop-color="#F69181"/>
</linearGradient>
<linearGradient id="paint27_linear_1729_732" x1="100.82" y1="330.211" x2="98.9576" y2="318.298" gradientUnits="userSpaceOnUse">
<stop stop-color="#F37A7F"/>
<stop offset="0.47" stop-color="#F4837F"/>
<stop offset="1" stop-color="#F58880"/>
</linearGradient>
<linearGradient id="paint28_linear_1729_732" x1="107.393" y1="325.24" x2="106.368" y2="318.681" gradientUnits="userSpaceOnUse">
<stop stop-color="#FCE4D6"/>
<stop offset="0.99" stop-color="#AE7DB7"/>
</linearGradient>
<linearGradient id="paint29_linear_1729_732" x1="93.2273" y1="327.462" x2="92.2018" y2="320.902" gradientUnits="userSpaceOnUse">
<stop stop-color="#FCE4D6"/>
<stop offset="0.99" stop-color="#AE7DB7"/>
</linearGradient>
<linearGradient id="paint30_linear_1729_732" x1="76.305" y1="339.04" x2="70.6098" y2="302.611" gradientUnits="userSpaceOnUse">
<stop stop-color="#FCE4D6"/>
<stop offset="0.99" stop-color="#AE7DB7"/>
</linearGradient>
<linearGradient id="paint31_linear_1729_732" x1="123.75" y1="329.482" x2="118.55" y2="296.22" gradientUnits="userSpaceOnUse">
<stop stop-color="#FCE4D6"/>
<stop offset="0.99" stop-color="#AE7DB7"/>
</linearGradient>
<linearGradient id="paint32_linear_1729_732" x1="97.5524" y1="314.432" x2="96.9794" y2="310.767" gradientUnits="userSpaceOnUse">
<stop stop-color="#FCE4D6"/>
<stop offset="0.99" stop-color="#AE7DB7"/>
</linearGradient>
<linearGradient id="paint33_linear_1729_732" x1="52.4688" y1="320.45" x2="51.3736" y2="313.444" gradientUnits="userSpaceOnUse">
<stop stop-color="#FCE4D6"/>
<stop offset="0.99" stop-color="#AE7DB7"/>
</linearGradient>
<linearGradient id="paint34_linear_1729_732" x1="1.80674" y1="270.468" x2="40.2442" y2="264.545" gradientUnits="userSpaceOnUse">
<stop stop-color="#827FBC"/>
<stop offset="1" stop-color="white"/>
</linearGradient>
<linearGradient id="paint35_linear_1729_732" x1="10.6014" y1="283.22" x2="38.2897" y2="278.954" gradientUnits="userSpaceOnUse">
<stop stop-color="#827FBC"/>
<stop offset="1" stop-color="white"/>
</linearGradient>
<linearGradient id="paint36_linear_1729_732" x1="301.772" y1="204.784" x2="407.084" y2="891.364" gradientUnits="userSpaceOnUse">
<stop stop-color="#0BFFD6" stop-opacity="0.51"/>
<stop offset="1" stop-color="#0B60FF"/>
</linearGradient>
<linearGradient id="paint37_linear_1729_732" x1="108.162" y1="570.267" x2="108.162" y2="841.494" gradientUnits="userSpaceOnUse">
<stop stop-color="#0BE7FF" stop-opacity="0.1"/>
<stop offset="1" stop-color="#0B91FF"/>
</linearGradient>
<clipPath id="clip0_1729_732">
<rect width="414" height="896" fill="white"/>
</clipPath>
</defs>
</svg>
